<?xml version="1.0" standalone="yes"?>
<svg xmlns="http://www.w3.org/2000/svg" width="626" height="250">
<path style="fill:#260815; stroke:none;" d="M0 0L0 250L626 250L626 0L0 0z"/>
<path style="fill:#6b367f; stroke:none;" d="M534 38L535 39L534 38z"/>
<path style="fill:#ad494a; stroke:none;" d="M535 38C529.981 43.3163 532 53.0915 532 60L535 58L535 76L533 75L531 221L536 221L536 92L536 56L535 38z"/>
<path style="fill:#6b367f; stroke:none;" d="M94.6667 39.3333L95.3333 39.6667L94.6667 39.3333M532 39L533 40L532 39z"/>
<path style="fill:#ad494a; stroke:none;" d="M94 40L94 221L98 221L98 83L98 51C97.9997 46.4595 98.9868 41.6551 94 40z"/>
<path style="fill:#6b367f; stroke:none;" d="M97 40L98 41L97 40M531 40C530.969 43.6844 531.566 50.4493 529.231 53.49C523.364 61.1303 503.729 65.1049 495 69.2554C488.066 72.5524 479.488 74.1842 479 83C491.281 76.7173 504.315 71.4404 517 66.0008C522.156 63.79 528.944 62.1574 530 56L531 56L531 194L532 194L532 86C532 73.0088 536.007 51.9315 531 40M527 42C517.053 50.0568 504.101 54.6623 493 60.9992C486.855 64.5072 480.864 66.2476 480 74L483 71C493.017 71.5816 507.015 62.0882 516 57.7415C519.193 56.197 523.902 54.7632 526.397 52.1852C528.859 49.6401 528.227 44.924 527 42M98 43L99 44L98 43M93 44L93 137L94 137L94 73L93 44M102 44L103.603 52.9259L120 60.8603L155 76L155 72L102 44z"/>
<path style="fill:#ad494a; stroke:none;" d="M526 44L526 47L527 47L526 44M103 45L103 48L104 48L103 45z"/>
<path style="fill:#6b367f; stroke:none;" d="M98 46L99 47L98 46M98 48L99 49L98 48z"/>
<path style="fill:#260815; stroke:none;" d="M106 50L107 51L106 50z"/>
<path style="fill:#6b367f; stroke:none;" d="M98.3333 51.6667L98.6667 52.3333L98.3333 51.6667z"/>
<path style="fill:#260815; stroke:none;" d="M108 52L109 53L108 52z"/>
<path style="fill:#6b367f; stroke:none;" d="M99 53C99.1058 61.8757 105.845 62.9667 113 66.2307C127.131 72.6773 142.089 80.7061 157 85L155 83L156 79C137.509 71.8262 115.467 64.0565 99 53z"/>
<path style="fill:#260815; stroke:none;" d="M111 53L112 54L111 53M103 57L104 58L103 57z"/>
<path style="fill:#ef9663; stroke:none;" d="M534 58L532 81L533 81L533 75L535 76L534 58M96 59L96 77L97 77L96 59z"/>
<path style="fill:#260815; stroke:none;" d="M102 59L104 61L102 59z"/>
<path style="fill:#ef9663; stroke:none;" d="M94 60L94 80L95 80L94 60z"/>
<path style="fill:#6b367f; stroke:none;" d="M101 62L101 159L101 182L102.603 190.969L117 192L156 191L156 190L115 189L117 179L118 179L118 187L119 187L119 184L121 188L125 186L124 188L136 189L137 189L137 177L130 176L128 178C123.573 174.939 116.669 175.762 112 178L113 175L110 177L108 175L108 186L110 186L110 178L111 178L111 187L115 190L108 189C106.444 187.187 105.556 187.187 104 189L108 189L108 190L103 190L103 168L170 173L170 170L156 169L155 171L154 171L129 168L129 161L128 161L128 168L123 168L123 161L122 161L122 168L118 168L116 162L116 168L115 168L115 164L114 164L112 167L112 162L111 162L111 167L109 164L108 164L106 167L106 161L105 161L105 167L104 167L106 150L105 150L105 155L104 155L103 122L106 123L106 122C100.334 116.166 101.226 105.452 103 98C116.144 102.827 130.437 105.879 144 109.37C148.466 110.52 155.664 114.101 159 110L154 111L160 109L160 102L159 102L159 104L158 104L158 100L157 100C155.37 108.25 153.425 108.817 146 106L147 108L146 108L142 108L143 105L139 107L140 103C137.22 104.39 133.044 106.824 134 103L131 104L132 102L129 104L128 101C125.05 101.983 124.378 102.487 125 100L122 102L113 100L113 98L102 96C103.007 86.8373 104.578 70.5264 101 62z"/>
<path style="fill:#260815; stroke:none;" d="M514 62L515 63L514 62z"/>
<path style="fill:#6b367f; stroke:none;" d="M528 62L527 97L513 94L514 98L517 100L505 100L505 103L504 103L502 99L501 99L502 103L497 102C496.508 106.765 490.701 104.067 487 105L490 94L491 94L490 103L491 103L496 93L496 92L493 89L492 89L489 95L485 92L487 104L486 104L486 96L485 96L486 106L483 105L484 108L482 105C477.469 105 482.426 96.6321 475 98L475 99L478 98L481 109L477 103L476 103L477 108L474 108L474 112L527 98L527 118L520 109L523 118L523 119L514 121L506 122L506 123L509 123L509 124L493 127L494 125L492 127L488 125L488 120L487 120L490 128L478 128L478 130L472 130L474 119L473 119L471 132L501.985 126.64L513 123L527 122L526 132L526 133L528 137L522 134L522 135L525 138L528 141L522 140L522 145L527 145L528 152L524 150L525 167L522 161L521 161L521 167L519 167L519 161L518 161L518 167L516 167L516 161L515 161L515 167L513 167L513 160L512 160L512 168L507 168L508 162L506 168L504 165L503 165L501 168L502 163L501 163L500 169L485 170L485 168L489 168L489 167C483.753 164.106 485.816 159.127 485 154L482 156L482 154L479 157L475 157C468.825 150.311 466.116 164.281 466 168L472 168L472 163L473 163L476 168L475 158L476 158L476 166L478 166L478 158L480 158L475 171C473.404 168.063 470.609 169.818 468 171L469 169L466 172C484.526 172 508.217 173.049 526 168L527 190L523 190L524 184L518 184L519 190L517 190L517 185L516 185L515 191L515 180L517 183L518 183L517 174L515 174L515 180L514 180L513 174L512 174L512 179L510 179L510 174L509 174L509 180L513 179C513.529 181.6 513.965 183.563 511 184L512 190L511 190L507 184L506 190L504 190L505 184L501 184L500 191L494 191L498 181L497 181L494 184L493 191L488 190L488 191L528 192C528 161.312 529 130.712 529 100C529 89.104 532.208 72.0273 528 62z"/>
<path style="fill:#ad494a; stroke:none;" d="M487 69L488 70L487 69M144 70L145 71L144 70M483 71L484 72L483 71M480 72L481 73L480 72z"/>
<path style="fill:#6b367f; stroke:none;" d="M46 74L45 85L46 85C47.885 81.0775 48.544 77.7289 46 74M72 74L62 136L63 136L64 128L67 129L71.4205 92L72 74z"/>
<path style="fill:#ad494a; stroke:none;" d="M152 74L153 75L152 74z"/>
<path style="fill:#260815; stroke:none;" d="M144 77L145 78L144 77M482 78L483 79L482 78z"/>
<path style="fill:#6b367f; stroke:none;" d="M108 79L109 80L108 79M106 80L107 83L108 83L108 80L106 80M111.333 80.6667L111.667 81.3333L111.333 80.6667M517 80L517 82L519 82L517 80z"/>
<path style="fill:#ad494a; stroke:none;" d="M521 80L520 83L523 81L521 80z"/>
<path style="fill:#6b367f; stroke:none;" d="M522 80L523 81L522 80M104 81L105 82L104 81z"/>
<path style="fill:#ad494a; stroke:none;" d="M107 81L107 82L113 85L107 81z"/>
<path style="fill:#6b367f; stroke:none;" d="M109 81L110 82L109 81M523 81L523 82L526 83L523 81M113 85L117 84L113 85M513.333 82.6667L513.667 83.3333L513.333 82.6667z"/>
<path style="fill:#ad494a; stroke:none;" d="M516 85L519 82L516 85z"/>
<path style="fill:#6b367f; stroke:none;" d="M522 82L523 83L522 82M109.667 83.3333L110.333 83.6667L109.667 83.3333z"/>
<path style="fill:#ad494a; stroke:none;" d="M115 83L114 84L117 86L115 83z"/>
<path style="fill:#6b367f; stroke:none;" d="M119 83L118 87L119 87L119 83M510.333 83.6667L510.667 84.3333L510.333 83.6667z"/>
<path style="fill:#ad494a; stroke:none;" d="M514 83L505 88C508.17 87.5314 514.103 86.9482 514 83z"/>
<path style="fill:#6b367f; stroke:none;" d="M520 83C520.004 88.4324 519.602 93.9143 526 95L526 94L520 83M108 84L108 90L109 90L108 84M123 84L124 85L123 84M515 84L516 85L515 84M517 84L518 85L517 84M112 85L112 93L113 93L112 85z"/>
<path style="fill:#ad494a; stroke:none;" d="M118 85L121 87L118 85z"/>
<path style="fill:#6b367f; stroke:none;" d="M506 85L507 86L506 85z"/>
<path style="fill:#ad494a; stroke:none;" d="M122 86L124 89L125 88L124 86L122 86z"/>
<path style="fill:#6b367f; stroke:none;" d="M124 86L125 87L124 86M127.333 86.6667L127.667 87.3333L127.333 86.6667M502 86L507 100L508 100L509 97L506 97C507.532 91.8063 507.097 88.4247 502 86M517 86L517 90L518 90L517 86M44 87L34 136L35 136L35 134L36 134L36 143L37 143L36 132C41.8256 130.752 42.0825 113.589 40 109C44.903 105.563 47.6104 91.8407 44 87M115 87L114 97L118 97L115 87M120 87L121 88L120 87z"/>
<path style="fill:#ad494a; stroke:none;" d="M126 87L129 90L126 87z"/>
<path style="fill:#6b367f; stroke:none;" d="M130.667 87.3333L131.333 87.6667L130.667 87.3333M498 87L499 88L498 87z"/>
<path style="fill:#ad494a; stroke:none;" d="M502 87L501 90L504 88L502 87z"/>
<path style="fill:#6b367f; stroke:none;" d="M508 87L510 99L511 99L512 97L508 87M513 87L513 93L514 93L515 87L513 87M119 88L119 97L120 97L119 88M124.667 88.3333L125.333 88.6667L124.667 88.3333z"/>
<path style="fill:#ad494a; stroke:none;" d="M130 88L132 91L130 88z"/>
<path style="fill:#6b367f; stroke:none;" d="M499 88L501 90L499 88z"/>
<path style="fill:#260815; stroke:none;" d="M507 88L506 97L507 98L510 97L509 88L507 88z"/>
<path style="fill:#6b367f; stroke:none;" d="M123 89L123 97L124 97L123 89M126 89L127 90L126 89M129 89L130 90L129 89M132.333 89.6667L132.667 90.3333L132.333 89.6667z"/>
<path style="fill:#ad494a; stroke:none;" d="M497 89L497 91L500 91L500 89L497 89z"/>
<path style="fill:#6b367f; stroke:none;" d="M137 90L142 93L142 92L137 90M108 91L107 94L110 94L108 91M126 91L126 97C128.231 95.0532 128.231 92.9468 126 91z"/>
<path style="fill:#ad494a; stroke:none;" d="M136 91L142 95L141 92L136 91z"/>
<path style="fill:#6b367f; stroke:none;" d="M488 91L489 92L488 91z"/>
<path style="fill:#ad494a; stroke:none;" d="M492 91L491 94L492 91z"/>
<path style="fill:#6b367f; stroke:none;" d="M502 91L502 98L503 98L502 91M517 91L516 93L518 93L517 91M130 92L130 95L132 95L132 92L130 92M133.667 92.3333L134.333 92.6667L133.667 92.3333M143 92C142.552 96.5302 142.526 101.795 146 105L145 92L143 92z"/>
<path style="fill:#ad494a; stroke:none;" d="M488 92L488 95L490 92L488 92z"/>
<path style="fill:#6b367f; stroke:none;" d="M497 92L499 94L499 92L497 92z"/>
<path style="fill:#ad494a; stroke:none;" d="M108 93L107 94L110 96L108 93z"/>
<path style="fill:#6b367f; stroke:none;" d="M147 93L145 95L145 96L148 106L149 106L146 95L149 96L147 93M482.333 93.6667L482.667 94.3333L482.333 93.6667z"/>
<path style="fill:#ad494a; stroke:none;" d="M520 93L516 97L522 93L520 93z"/>
<path style="fill:#6b367f; stroke:none;" d="M104.667 94.3333L105.333 94.6667L104.667 94.3333M111 94L111 97L112 97L111 94z"/>
<path style="fill:#ad494a; stroke:none;" d="M112 94L111 95L114 97L112 94z"/>
<path style="fill:#6b367f; stroke:none;" d="M137 94L135 104C138.704 101.595 138.707 97.8444 137 94z"/>
<path style="fill:#260815; stroke:none;" d="M138 94C138.015 97.6453 137.254 101.506 141 103L140 94L138 94z"/>
<path style="fill:#6b367f; stroke:none;" d="M140 94L141 103L142 103L140 94z"/>
<path style="fill:#ad494a; stroke:none;" d="M143 94L145 96L145 94L143 94z"/>
<path style="fill:#6b367f; stroke:none;" d="M150.333 94.6667L150.667 95.3333L150.333 94.6667z"/>
<path style="fill:#ad494a; stroke:none;" d="M481 97L487 95L481 97z"/>
<path style="fill:#260815; stroke:none;" d="M490 94L489 103L490 103L490 94z"/>
<path style="fill:#6b367f; stroke:none;" d="M516 94L517 95L516 94M518.667 94.3333L519.333 94.6667L518.667 94.3333z"/>
<path style="fill:#260815; stroke:none;" d="M141 95L144 104L141 95z"/>
<path style="fill:#ad494a; stroke:none;" d="M146 95L146 96L152 98L146 95z"/>
<path style="fill:#6b367f; stroke:none;" d="M253 95L253 114L254 114L253 95M478 95L478 96L481 104C484.901 100.591 481.898 96.6332 478 95z"/>
<path style="fill:#260815; stroke:none;" d="M486 95L486 104L487 104L488 95L486 95z"/>
<path style="fill:#6b367f; stroke:none;" d="M498 95L497 99L500 98L498 95z"/>
<path style="fill:#ad494a; stroke:none;" d="M115 96L121 99L115 96z"/>
<path style="fill:#6b367f; stroke:none;" d="M130 96L130 99L132 99L132 96L130 96z"/>
<path style="fill:#260815; stroke:none;" d="M144 96L146 105L147 105L144 96z"/>
<path style="fill:#6b367f; stroke:none;" d="M153 96L149 97L150 106L151 106L151 99L153 99L152 108C154.667 105.382 154.952 103.594 154 100L153 96M255 96L255 117L256 117L256 98L258 101L258 102L261 101L262 102C255.353 117.753 260 142.987 260 160L261 160L261.495 143.17L270 120L271 120L272 123L274 117L285 119L292 117L292 121L293 121L294 117L313 121L313 127L336 131L336 140L337 140L338 132L342 133L353 138L356 135L356 148L357 148L358 140L359 140L358 166L359 166L362 162L365 159L364 156L368 158L373 156L373 155L370 155L370 101L372 102L374 97C369.889 99.7812 369.058 102.133 369 107L368 107C366.585 98.7493 351.516 100.536 345 100.09C319.913 98.3716 294.151 100 269 100L269 105L268 105L267 101L266 104L265 104C263.572 99.4923 259.52 96.994 255 96z"/>
<path style="fill:#ad494a; stroke:none;" d="M256 96L257 97L256 96z"/>
<path style="fill:#6b367f; stroke:none;" d="M375 96C375 114.577 369.697 138.059 375 156L376 156C381.169 138.511 377 114.267 377 96L375 96z"/>
<path style="fill:#ad494a; stroke:none;" d="M478 96L478 98L480 98L480 96L478 96z"/>
<path style="fill:#260815; stroke:none;" d="M483 96L481 104L481 97L480 97L480 106C484.905 103.919 484.982 100.968 485 96L483 96z"/>
<path style="fill:#ad494a; stroke:none;" d="M512 98L515 96L512 98z"/>
<path style="fill:#260815; stroke:none;" d="M148 97L149 106L150 106L148 97z"/>
<path style="fill:#ad494a; stroke:none;" d="M153 97L153 99L155 99L153 97z"/>
<path style="fill:#6b367f; stroke:none;" d="M157.667 97.3333L158.333 97.6667L157.667 97.3333z"/>
<path style="fill:#ad494a; stroke:none;" d="M476 97L477 98L476 97M508 99L511 97L508 99z"/>
<path style="fill:#260815; stroke:none;" d="M506 100L506 101L517 100L516 97L506 100z"/>
<path style="fill:#6b367f; stroke:none;" d="M118 98L119 99L118 98M121 98L122 99L121 98z"/>
<path style="fill:#ad494a; stroke:none;" d="M122 98L122 100L125 100L125 98L122 98z"/>
<path style="fill:#6b367f; stroke:none;" d="M126 98L126 99L129 102L130 102L126 98z"/>
<path style="fill:#ad494a; stroke:none;" d="M156 98L158 104L159 104L160 98L156 98M256 98L255 150L257 174L258 174L260 163L263 163L261 183L287 184L287 189C273.958 189 258.725 185.043 263 203L264 203L264 190L287 190L288 208L266 208L266 209L287 209L287 220L288 220L288 217L289 217L289 220L290 220L289 210L327 210L327 208L289 208L289 191L320 190L320 189L290 189L290 184L317 183C312.446 174.702 302.193 177 294 177L294 172L293 172L293 177L274 177L274 172L270 172C273.253 157.031 268.537 128.066 294 136C301.007 132.505 308.907 147.669 312 152L309 154C314.185 158.672 312.483 162.304 310 168L313 169L301 172L301 173C319.616 173 340.682 168.639 359 173L359 140L358 140L357 148L356 148L356 135L353 138L342 133L338 132L337 140L336 140L336 131L313 127L313 121L294 117L293 121L292 121L292 117L285 119L274 117L272 123L271 120L270 120L261.495 142.286L261 160L260 160L260 118L258 102L258 101L260 101L260 100L256 98z"/>
<path style="fill:#6b367f; stroke:none;" d="M470 98L469 101L472 99L470 98z"/>
<path style="fill:#ad494a; stroke:none;" d="M501 100L501 101L507 98L501 100M126 99L129 101L126 99z"/>
<path style="fill:#260815; stroke:none;" d="M151 99L152 107L153 107L153 99L151 99z"/>
<path style="fill:#ef9663; stroke:none;" d="M158 99L159 100L158 99z"/>
<path style="fill:#6b367f; stroke:none;" d="M162 99L162 102L164 101L164 100L162 99M91 100L91 123L92 123L91 100z"/>
<path style="fill:#ad494a; stroke:none;" d="M130 100L130 102L132 102L132 100L130 100z"/>
<path style="fill:#260815; stroke:none;" d="M154 100L155 108L156 108L157 100L154 100z"/>
<path style="fill:#6b367f; stroke:none;" d="M165 100L165 103L166 103L165 100z"/>
<path style="fill:#ad494a; stroke:none;" d="M372 102L370 101L370 102L370 155L374 155L374 100L372 102z"/>
<path style="fill:#6b367f; stroke:none;" d="M463 100L463 103L465 100L463 100M466 100L466 102L468 102L468 100L466 100M476.333 100.667L476.667 101.333L476.333 100.667M497 100L498 101L497 100z"/>
<path style="fill:#ad494a; stroke:none;" d="M497 102L500 100L497 102z"/>
<path style="fill:#260815; stroke:none;" d="M502 101L502 102L505 103L505 100L502 101M128 101L131 103L128 101z"/>
<path style="fill:#6b367f; stroke:none;" d="M168 101L170 104L168 101z"/>
<path style="fill:#260815; stroke:none;" d="M260 101L260 106L261 106L260 101M263 101L264 102L263 101z"/>
<path style="fill:#6b367f; stroke:none;" d="M461 101L457 103L457 104L461 101z"/>
<path style="fill:#260815; stroke:none;" d="M499 103L502 103L501 101L499 103z"/>
<path style="fill:#ad494a; stroke:none;" d="M137 102L137 104L139 104L139 102L137 102M487 104L487 105L493 102L487 104z"/>
<path style="fill:#6b367f; stroke:none;" d="M494.333 102.667L494.667 103.333L494.333 102.667z"/>
<path style="fill:#ad494a; stroke:none;" d="M140 103L141 106L152 108L140 103z"/>
<path style="fill:#6b367f; stroke:none;" d="M171.667 103.333L172.333 103.667L171.667 103.333M259.333 103.667L259.667 104.333L259.333 103.667z"/>
<path style="fill:#260815; stroke:none;" d="M263 103L264 104L263 103z"/>
<path style="fill:#6b367f; stroke:none;" d="M455 103L454 105L456 105L455 103M521 103L522 106L516 105L517 118L518 118L518 107L522 108L521 103M106 106L109 105L104 118L104 119L110 118L109 107L114 119L111 105L113 106C110.505 104.281 108.171 103.631 106 106z"/>
<path style="fill:#260815; stroke:none;" d="M139 104L139 107L141 106L141 105L139 104z"/>
<path style="fill:#6b367f; stroke:none;" d="M174.667 104.333L175.333 104.667L174.667 104.333M190 104L191 105L190 104M200 104L201 105L200 104M419 104L420 105L419 104M422 104L423 105L422 104z"/>
<path style="fill:#ad494a; stroke:none;" d="M484 104L484 106L486 106L486 104L484 104M521 104L520 106L522 106L521 104z"/>
<path style="fill:#6b367f; stroke:none;" d="M537 104L537 179L538 179L538 127L537 104z"/>
<path style="fill:#ad494a; stroke:none;" d="M107.667 105.333L108.333 105.667L107.667 105.333M111 105L111 107L113 107L111 105z"/>
<path style="fill:#6b367f; stroke:none;" d="M115 105L115 119C119.427 115.627 118.026 109.871 115 106L117 107L115 105M118.667 105.333L119.333 105.667L118.667 105.333z"/>
<path style="fill:#ad494a; stroke:none;" d="M158.333 105.667L158.667 106.333L158.333 105.667M482 105L481 107L483 107L482 105z"/>
<path style="fill:#260815; stroke:none;" d="M489.667 105.333L490.333 105.667L489.667 105.333z"/>
<path style="fill:#6b367f; stroke:none;" d="M513 105L515 111L513 105z"/>
<path style="fill:#ad494a; stroke:none;" d="M115 106L121 110L121 120L119 120L119 114L118 114L118 119L106 118L118 121C118.769 124.589 120.863 123.834 124 123L123 125L128 123C128.359 125.697 130.319 126.187 132 124L139 126C137.161 122.999 135.439 122.521 132 123L132 110L131 110L131 122L129 122L132 109L132 108L126 110L127 107L122 109L123 106L120 106L121 108L119 106L115 106z"/>
<path style="fill:#ef9663; stroke:none;" d="M119 106L119 108L121 108L119 106z"/>
<path style="fill:#6b367f; stroke:none;" d="M121 106L122 107L121 106M123 106L124 107L123 106z"/>
<path style="fill:#260815; stroke:none;" d="M142 106L142 108L144 106L142 106M145 106L145 108L147 108L145 106M159 106L160 107L159 106z"/>
<path style="fill:#ad494a; stroke:none;" d="M478 106L478 108L480 108L480 106L478 106z"/>
<path style="fill:#260815; stroke:none;" d="M483 106L482 108L484 108L483 106M486 106L486 108L488 106L486 106z"/>
<path style="fill:#6b367f; stroke:none;" d="M509 106L512 109L509 106z"/>
<path style="fill:#ad494a; stroke:none;" d="M513 106L512 108L514 108L513 106M516.667 106.333L517.333 106.667L516.667 106.333z"/>
<path style="fill:#260815; stroke:none;" d="M109 107L110 118L111 118L111 107L109 107z"/>
<path style="fill:#ef9663; stroke:none;" d="M122 107L122 109L124 109L124 107L122 107z"/>
<path style="fill:#6b367f; stroke:none;" d="M125 107L126 108L125 107M127 107L128 108L127 107z"/>
<path style="fill:#ad494a; stroke:none;" d="M153 107L153 109L155 109L155 107L153 107M475 107L475 109L477 107L475 107z"/>
<path style="fill:#260815; stroke:none;" d="M480 107L479 109L481 109L480 107z"/>
<path style="fill:#6b367f; stroke:none;" d="M506 107L504 109L504 110L506 120L507 120L505 109L512 120C510.659 114.371 511.179 110.504 506 107z"/>
<path style="fill:#ef9663; stroke:none;" d="M126 108L126 110L128 110L128 108L126 108z"/>
<path style="fill:#260815; stroke:none;" d="M148.667 108.333L149.333 108.667L148.667 108.333M151 108L153 110L153 108L151 108z"/>
<path style="fill:#ad494a; stroke:none;" d="M156 108L158 112L161 108L160 108L159 110L156 108z"/>
<path style="fill:#260815; stroke:none;" d="M368 108L368 127L369 127L368 108M477 108L476 110L478 110L477 108z"/>
<path style="fill:#6b367f; stroke:none;" d="M502 108L499 109L500 112L497 123L502 108z"/>
<path style="fill:#ad494a; stroke:none;" d="M508 108L509 110L510 110L511 108L508 108z"/>
<path style="fill:#ef9663; stroke:none;" d="M118 109L119 120L121 120C121 116.047 122.175 110.666 118 109M130 109L129 122L131 122L132 109L130 109z"/>
<path style="fill:#260815; stroke:none;" d="M154 110L154 111L158 111L154 110z"/>
<path style="fill:#ef9663; stroke:none;" d="M159 109L160 110L159 109z"/>
<path style="fill:#6b367f; stroke:none;" d="M469.667 109.333L470.333 109.667L469.667 109.333z"/>
<path style="fill:#ad494a; stroke:none;" d="M501 111L504 109L501 111M505 109L505 110L508 110L505 109z"/>
<path style="fill:#260815; stroke:none;" d="M117.333 110.667L117.667 111.333L117.333 110.667z"/>
<path style="fill:#ad494a; stroke:none;" d="M118 110L119 111L118 110z"/>
<path style="fill:#ef9663; stroke:none;" d="M122 110L123 121L124 121L124 110L122 110z"/>
<path style="fill:#6b367f; stroke:none;" d="M132 111L132 123C136.076 120.06 135.06 115.451 134 111L136 112L132 111M162.667 110.333L163.333 110.667L162.667 110.333M466 110L467 111L466 110M494 110L495 111L494 110z"/>
<path style="fill:#ad494a; stroke:none;" d="M497 112L500 110L497 112z"/>
<path style="fill:#260815; stroke:none;" d="M504 110L503 121C506.921 118.458 506.662 113.513 504 110M506 110L507 120L509 120L509 110L506 110z"/>
<path style="fill:#ef9663; stroke:none;" d="M126 111L126 121L128 121L128 111L126 111z"/>
<path style="fill:#ad494a; stroke:none;" d="M134 111L139 114L139 113L134 111z"/>
<path style="fill:#6b367f; stroke:none;" d="M137 111L138 112L137 111M166 111L167 112L166 111M462 111L462 112L465 112L462 111M491 111L491 124L492 124L494 112L491 111z"/>
<path style="fill:#ad494a; stroke:none;" d="M494 111L494 113L496 113L496 111L494 111z"/>
<path style="fill:#6b367f; stroke:none;" d="M496 111L497 112L496 111z"/>
<path style="fill:#260815; stroke:none;" d="M501 111L500 122L501 122L501 111z"/>
<path style="fill:#6b367f; stroke:none;" d="M502 111L501 122C504.3 118.769 504.84 114.75 502 111M512 111L513 112L512 111z"/>
<path style="fill:#ad494a; stroke:none;" d="M118 112L119 113L118 112z"/>
<path style="fill:#260815; stroke:none;" d="M132 112L132 122L133 122L132 112z"/>
<path style="fill:#6b367f; stroke:none;" d="M138 112L139 113L138 112M159 112L159 113L162 113L159 112M168 112L169 113L168 112M245 112L244 145L245 145L245 112M459.667 112.333L460.333 112.667L459.667 112.333z"/>
<path style="fill:#ad494a; stroke:none;" d="M491.333 112.667L491.667 113.333L491.333 112.667z"/>
<path style="fill:#260815; stroke:none;" d="M492 114L493 123L494 123L494 120L498 122L498 112L492 114z"/>
<path style="fill:#6b367f; stroke:none;" d="M513.333 112.667L513.667 113.333L513.333 112.667M136 113L137 114L136 113M142 113L142 117L143 117L144 114L142 113M457 113L458 114L457 113M484 125L486 125L485 115L488 114C482.613 113.197 484 121.45 484 125M137.667 114.333L138.333 114.667L137.667 114.333z"/>
<path style="fill:#ad494a; stroke:none;" d="M142 114L142 128L164 132L162 119L148 116L149 126L147 126L147 122L146 122L144 125L142 114M145 114L146 118L147 118L145 114z"/>
<path style="fill:#6b367f; stroke:none;" d="M146 114L147 115L146 114M193 114L194 115L193 114M200 114L201 115L200 114M203 114L204 115L203 114M206 114L207 115L206 114z"/>
<path style="fill:#ad494a; stroke:none;" d="M253 114L253 168L254 168L254 132L253 114z"/>
<path style="fill:#6b367f; stroke:none;" d="M399 114L400 115L399 114M423 114L424 115L423 114M432 114L433 115L432 114M454 114L455 115L454 114M482 114L483 115L482 114z"/>
<path style="fill:#ad494a; stroke:none;" d="M483 114L482 128L487 128L488 114L485 115L486 125L484 125L483 114z"/>
<path style="fill:#6b367f; stroke:none;" d="M495 114L496 115L495 114M144 115L145 125L146 125L144 115M148.667 115.333L149.333 115.667L148.667 115.333M473 117L476 119L477 126L477 116L478 127L481 128L482 128L481 118L482 118L482 125L483 125L482 116L479 118L480 115L473 117z"/>
<path style="fill:#ad494a; stroke:none;" d="M480 115L479 118L480 115z"/>
<path style="fill:#6b367f; stroke:none;" d="M513 115L515 121L516 121L513 115z"/>
<path style="fill:#260815; stroke:none;" d="M117 116L117 119L118 119L117 116z"/>
<path style="fill:#6b367f; stroke:none;" d="M136 116L137 122L138 122L136 116M147 116L148 117L147 116M150.667 116.333L151.333 116.667L150.667 116.333M153 116L154 118L155 118L156 116L153 116M383 116L384 142L385 142C385 134.506 387.336 122.347 383 116z"/>
<path style="fill:#ad494a; stroke:none;" d="M477 116L476 127L475 127L473 118L472 130L478 130L478 128L481 129C480.487 126.525 480.396 126.425 478 127L477 116z"/>
<path style="fill:#6b367f; stroke:none;" d="M487 116L487 119L488 119L487 116M495 116L495 119L496 119L495 116z"/>
<path style="fill:#260815; stroke:none;" d="M144 117L144 125L145 125L144 117M147 117L147 126L148 126L147 117z"/>
<path style="fill:#6b367f; stroke:none;" d="M156 117L156 118L159 118L156 117z"/>
<path style="fill:#ad494a; stroke:none;" d="M520 117L520 120L523 119L523 118L520 117z"/>
<path style="fill:#6b367f; stroke:none;" d="M142 118L143 119L142 118M148 118L148 126L149 126L148 118M150 118L150 126L152 126L150 118M159 118L159 119L162 119L159 118z"/>
<path style="fill:#260815; stroke:none;" d="M481 118L481 126L482 126L481 118z"/>
<path style="fill:#ad494a; stroke:none;" d="M516 121L519 118L516 121z"/>
<path style="fill:#6b367f; stroke:none;" d="M519.333 118.667L519.667 119.333L519.333 118.667z"/>
<path style="fill:#ad494a; stroke:none;" d="M527 118L528 119L527 118z"/>
<path style="fill:#6b367f; stroke:none;" d="M107 119L108 120L107 119z"/>
<path style="fill:#260815; stroke:none;" d="M150 119L151 120L150 119M153 119L154 120L153 119z"/>
<path style="fill:#6b367f; stroke:none;" d="M154 119L153 127L154 127L154 119M156 119L156 128C158.882 125.481 158.151 121.839 156 119M162.333 119.667L162.667 120.333L162.333 119.667z"/>
<path style="fill:#260815; stroke:none;" d="M475 119L476 120L475 119M478 119L478 126L479 126L478 119z"/>
<path style="fill:#ad494a; stroke:none;" d="M491 126C496.906 124.702 511.906 124.366 515 119C508.481 119.825 494.626 120.055 491 126z"/>
<path style="fill:#260815; stroke:none;" d="M522 120L522 121L527 119L522 120z"/>
<path style="fill:#6b367f; stroke:none;" d="M111 120L112 121L111 120M111 124L118 125L118 121L117 121L112 123L112 122L115 121L111 124M142 120L143 121L142 120z"/>
<path style="fill:#260815; stroke:none;" d="M156 120L156 127L157 127L156 120M159 120L159 124L160 124L159 120z"/>
<path style="fill:#6b367f; stroke:none;" d="M252 120L252 183L260 183L256 195L258 196L261 196C262.655 185.402 278.91 189 287 189L287 184L261 183C263.969 174.28 264.298 171.726 263 163L260 163L258 174L257 174L256 171L255 171L255 182L254 182L253 141L252 120z"/>
<path style="fill:#ad494a; stroke:none;" d="M480 120L481 121L480 120z"/>
<path style="fill:#6b367f; stroke:none;" d="M494 120L496 122L496 120L494 120M517 120L518 121L517 120z"/>
<path style="fill:#260815; stroke:none;" d="M514 121L514 122L521 121L514 121z"/>
<path style="fill:#6b367f; stroke:none;" d="M107 121L107 123L110 123L110 121L107 121z"/>
<path style="fill:#260815; stroke:none;" d="M112 122L112 123L116 122L112 122z"/>
<path style="fill:#6b367f; stroke:none;" d="M511 121L512 122L511 121z"/>
<path style="fill:#ad494a; stroke:none;" d="M527 121L528 122L527 121z"/>
<path style="fill:#6b367f; stroke:none;" d="M98 122L99 123L98 122z"/>
<path style="fill:#260815; stroke:none;" d="M116 122L117 123L116 122z"/>
<path style="fill:#ef9663; stroke:none;" d="M119.667 122.333L120.333 122.667L119.667 122.333z"/>
<path style="fill:#6b367f; stroke:none;" d="M142 122L143 123L142 122z"/>
<path style="fill:#ad494a; stroke:none;" d="M315 122L314 126L321 126L321 125L317 122L315 122z"/>
<path style="fill:#6b367f; stroke:none;" d="M494 122L495 123L494 122z"/>
<path style="fill:#260815; stroke:none;" d="M510 122L510 123L513 123L510 122M117 123L118 124L117 123z"/>
<path style="fill:#ef9663; stroke:none;" d="M122.667 123.333L123.333 123.667L122.667 123.333M126 123L126 125L128 123L126 123z"/>
<path style="fill:#6b367f; stroke:none;" d="M138 123L139 124L138 123M162 123L162 129C164.283 126.979 163.745 125.312 162 123z"/>
<path style="fill:#ad494a; stroke:none;" d="M480 123L481 124L480 123z"/>
<path style="fill:#260815; stroke:none;" d="M504 123L504 124L509 124L504 123z"/>
<path style="fill:#6b367f; stroke:none;" d="M122 124L123 125L122 124M124 124L129 127L124 124z"/>
<path style="fill:#ef9663; stroke:none;" d="M129.667 124.333L130.333 124.667L129.667 124.333z"/>
<path style="fill:#260815; stroke:none;" d="M132 124L136 127L136 126L136 125L132 124z"/>
<path style="fill:#6b367f; stroke:none;" d="M133 124L134 125L133 124M159.333 124.667L159.667 125.333L159.333 124.667z"/>
<path style="fill:#260815; stroke:none;" d="M162.333 124.667L162.667 125.333L162.333 124.667M500 124L500 125L503 125L500 124z"/>
<path style="fill:#6b367f; stroke:none;" d="M91 125L91 138L92 138L91 125M107 125L108 126L107 125z"/>
<path style="fill:#ad494a; stroke:none;" d="M108 125L107 136L108 136L108 125z"/>
<path style="fill:#6b367f; stroke:none;" d="M109 125L110 126L109 125M111 125L112 126L111 125M134 125L135 126L134 125M136 125L131 126C135.87 131.658 157.656 132.684 165 133L165 129L164 129L164 132L140 128L142 126L142 125L139 127L138 127L136 125M239 125L236 132L239 132L239 125z"/>
<path style="fill:#260815; stroke:none;" d="M494 125L493 127L495 127L494 125M496 125L496 126L499 126L496 125z"/>
<path style="fill:#6b367f; stroke:none;" d="M517 125L518 126L517 125z"/>
<path style="fill:#ad494a; stroke:none;" d="M516 126L515 126C515 133.601 512.313 143.202 522 144L522 135L521 135L521 140L516 140L516 129L519 137L520 137L522 129L522 128L520 126L523 127L516 126z"/>
<path style="fill:#6b367f; stroke:none;" d="M522 125L523 126L522 125M105 126L106 127L105 126z"/>
<path style="fill:#ef9663; stroke:none;" d="M108 126L108 140L110 140L108 126z"/>
<path style="fill:#ad494a; stroke:none;" d="M110 126L108 143L108 144L114 144L115 144L115 141L116 141L116 144L116 145L122 143L121 146L129 144C131.02 147.125 132.884 146.584 136 145L140 148C139.329 142.924 136.518 138.597 140 134L140 133L136 132L133 130L132 143L131 143L132 129C127.6 131.853 129 138.255 129 143L128 143L128 128L118 128L118 141L116 141L116 127L115 127L114 140L112 140C112 135.625 113.755 128.838 110 126z"/>
<path style="fill:#ef9663; stroke:none;" d="M112 126L112 140L114 140L112 126z"/>
<path style="fill:#ad494a; stroke:none;" d="M113 126L114 127L113 126z"/>
<path style="fill:#6b367f; stroke:none;" d="M115.667 126.333L116.333 126.667L115.667 126.333z"/>
<path style="fill:#260815; stroke:none;" d="M138 126L139 127L138 126M140 126L140 128L142 128L142 126L140 126M159.333 126.667L159.667 127.333L159.333 126.667M475 126L476 127L475 126M487 128L490 128L489 126L487 128M491 126L492 127L491 126z"/>
<path style="fill:#6b367f; stroke:none;" d="M512 126L513 127L512 126z"/>
<path style="fill:#ad494a; stroke:none;" d="M513 126L514 127L513 126z"/>
<path style="fill:#ef9663; stroke:none;" d="M516 126L516 128L518 128L518 126L516 126M520 126L520 128L522 128L522 126L520 126z"/>
<path style="fill:#6b367f; stroke:none;" d="M524 126L524 131L523 131L523 127L522 127L522 133L525 133L524 126z"/>
<path style="fill:#ad494a; stroke:none;" d="M527 126L527 132L528 132L527 126z"/>
<path style="fill:#ef9663; stroke:none;" d="M116 127L116 141L118 141L116 127z"/>
<path style="fill:#6b367f; stroke:none;" d="M118 127L118 128L121 128L118 127z"/>
<path style="fill:#260815; stroke:none;" d="M162 127L163 128L162 127z"/>
<path style="fill:#6b367f; stroke:none;" d="M508 127L508 128L511 128L508 127z"/>
<path style="fill:#ad494a; stroke:none;" d="M511 127L509 142L508 142L508 128L504 128L504 129L506 142L504 142L504 130C501.05 130.983 500.378 131.487 501 129L493 132L494 130L493 130L492 133L490 131L489 131L489 143L490 143L490 134L492 134L490 147L490 148L494 145C496.901 146.95 498.925 146.941 501 144L502 144C504.575 146.899 507.226 144.873 510 143L509 145L510 145L514 145L514 144L511 144L511 143L514 143L514 138L513 138L512 141L511 127z"/>
<path style="fill:#ef9663; stroke:none;" d="M512 127L512 141L514 127L512 127z"/>
<path style="fill:#6b367f; stroke:none;" d="M514 127L514 132L515 132L514 127z"/>
<path style="fill:#ad494a; stroke:none;" d="M64 128C63.0844 145.878 51.8683 169.475 57 187L60.9198 170L66 128L64 128z"/>
<path style="fill:#6b367f; stroke:none;" d="M114 128L114 133L115 133L114 128z"/>
<path style="fill:#ef9663; stroke:none;" d="M119 128L122 130L119 128z"/>
<path style="fill:#6b367f; stroke:none;" d="M122 128L123 129L122 128z"/>
<path style="fill:#260815; stroke:none;" d="M147 128L148 129L147 128z"/>
<path style="fill:#ad494a; stroke:none;" d="M245 128L246 129L245 128z"/>
<path style="fill:#260815; stroke:none;" d="M368 128L368 133L369 133L368 128M481.667 128.333L482.333 128.667L481.667 128.333z"/>
<path style="fill:#6b367f; stroke:none;" d="M501 128L501 129L504 130L501 128z"/>
<path style="fill:#ef9663; stroke:none;" d="M508 128L508 142L509 142L510 128L508 128z"/>
<path style="fill:#ad494a; stroke:none;" d="M36 129L36 131L38 129L36 129z"/>
<path style="fill:#6b367f; stroke:none;" d="M104 129L106 132L104 129z"/>
<path style="fill:#ef9663; stroke:none;" d="M123 129L124 142L125 142L123 129M127 129L128 143L129 143L127 129z"/>
<path style="fill:#6b367f; stroke:none;" d="M129 129L130 130L129 129M132 129L133 130L132 129z"/>
<path style="fill:#260815; stroke:none;" d="M150 129L151 130L150 129M153 129L154 130L153 129z"/>
<path style="fill:#6b367f; stroke:none;" d="M456 129L457 130L456 129M496 129L497 130L496 129M499 129L500 130L499 129z"/>
<path style="fill:#ef9663; stroke:none;" d="M500 131L503 129L500 131M504 129L504 142L506 142L506 129L504 129z"/>
<path style="fill:#ad494a; stroke:none;" d="M513 129L514 130L513 129z"/>
<path style="fill:#ef9663; stroke:none;" d="M516 129L516 140L518 140L518 129L516 129M520 129L519 140L522 129L520 129M131 130L131 143L132 143L133 130L131 130M135.333 130.667L135.667 131.333L135.333 130.667z"/>
<path style="fill:#6b367f; stroke:none;" d="M138 130L139 131L138 130z"/>
<path style="fill:#260815; stroke:none;" d="M156 130L157 131L156 130z"/>
<path style="fill:#6b367f; stroke:none;" d="M491 130L492 131L491 130z"/>
<path style="fill:#ef9663; stroke:none;" d="M494 130L493 132L495 132L494 130M497 130L497 143L499 143L499 130L497 130z"/>
<path style="fill:#6b367f; stroke:none;" d="M526 130L527 131L526 130M65 131L65 137L66 137L65 131z"/>
<path style="fill:#ef9663; stroke:none;" d="M120 131L121 142L122 142L122 131L120 131M138 131L138 133L140 133L140 131L138 131z"/>
<path style="fill:#6b367f; stroke:none;" d="M140 131L140 140L141 140L140 131z"/>
<path style="fill:#260815; stroke:none;" d="M162 131L163 132L162 131z"/>
<path style="fill:#ad494a; stroke:none;" d="M236 132L240 131L236 132z"/>
<path style="fill:#6b367f; stroke:none;" d="M387 132L387 133L391 133L387 132z"/>
<path style="fill:#ef9663; stroke:none;" d="M490 131L490 133L492 133L492 131L490 131z"/>
<path style="fill:#6b367f; stroke:none;" d="M240.667 132.333L241.333 132.667L240.667 132.333z"/>
<path style="fill:#ef9663; stroke:none;" d="M501 132L501 143L502 143L501 132z"/>
<path style="fill:#260815; stroke:none;" d="M514 132L514 141L515 141L514 132z"/>
<path style="fill:#6b367f; stroke:none;" d="M518 132L518 140L519 140L518 132M104 133L104 145L108 145L108 138L107 138L107 141L106 141L104 133z"/>
<path style="fill:#ef9663; stroke:none;" d="M134 133L135 144L136 144L136 133L134 133z"/>
<path style="fill:#6b367f; stroke:none;" d="M239 133L240 134L239 133z"/>
<path style="fill:#ef9663; stroke:none;" d="M493 133L494 144L495 144L495 133L493 133z"/>
<path style="fill:#ad494a; stroke:none;" d="M527 133L527 137L528 137L527 133M35 134L31 155C36.3097 153.862 37.4304 138.218 35 134z"/>
<path style="fill:#6b367f; stroke:none;" d="M98 134L98 221L99 221L99 161L98 134z"/>
<path style="fill:#ef9663; stroke:none;" d="M138 134L138 144L140 144L140 134L138 134z"/>
<path style="fill:#6b367f; stroke:none;" d="M238 134L239 135L238 134z"/>
<path style="fill:#ad494a; stroke:none;" d="M245 134L244 159L245 159L245 134z"/>
<path style="fill:#ef9663; stroke:none;" d="M270 172L288 173L290 177L289 174L290 173L293 174L293 172C298.679 173.663 308.738 173.352 313 169L310 168C313.051 163.056 314.705 157.5 309 154L312 152C309.751 147.729 300.44 130.987 294 136L292 134C286.853 134.35 280.589 134.101 276.38 137.762C268.2 144.877 271.066 162.466 270 172M490 134L490 144L492 144L492 134L490 134z"/>
<path style="fill:#6b367f; stroke:none;" d="M157 135L157 139L158 139L157 135M470 136L470 137L472 137C469.999 140.847 469.165 144.234 473 147L473 148L470 151C477.453 150.995 489.683 152.542 490 143L489 143L489 148L473 150L473 148L478 148L478 147L473 147L472 135L470 136z"/>
<path style="fill:#260815; stroke:none;" d="M522 135L522 140L527 140L525 138L526 136L522 135z"/>
<path style="fill:#6b367f; stroke:none;" d="M107 136L108 137L107 136z"/>
<path style="fill:#ad494a; stroke:none;" d="M157 137L157 138L160 139L160 136L157 137z"/>
<path style="fill:#6b367f; stroke:none;" d="M162 136L163 137L162 136z"/>
<path style="fill:#260815; stroke:none;" d="M375 136L375 155L376 155L375 136z"/>
<path style="fill:#ad494a; stroke:none;" d="M471 136L470 139L471 136M107 137L108 138L107 137z"/>
<path style="fill:#6b367f; stroke:none;" d="M160 137L162 140L160 137z"/>
<path style="fill:#ad494a; stroke:none;" d="M161 137L164 140L161 137z"/>
<path style="fill:#6b367f; stroke:none;" d="M164 137L164 140L166 140L166 137L164 137z"/>
<path style="fill:#d9bcb7; stroke:none;" d="M282 138L278 156L293 156L290 159L290 160L290 161L298 160L297 157L300 156L296 138L282 138z"/>
<path style="fill:#ad494a; stroke:none;" d="M293 137L294 138L293 137z"/>
<path style="fill:#260815; stroke:none;" d="M368 137L368 140L369 140L368 137z"/>
<path style="fill:#6b367f; stroke:none;" d="M389 151L397 151L397 150L396 142L395 142L394 151L392 151L393 138C387.535 139.814 389 146.155 389 151M522 138L523 139L522 138z"/>
<path style="fill:#ad494a; stroke:none;" d="M527 138L527 141L528 141L527 138z"/>
<path style="fill:#6b367f; stroke:none;" d="M33 139L33 143L34 143L33 139M216 139L219 141L216 139M220 139L220 141L222 141L220 139M223 139L223 141L225 141L225 139L223 139M226 139L226 141L228 141L228 139L226 139M229 139L229 141L231 141L231 139L229 139M232 139L233 140L232 139z"/>
<path style="fill:#ad494a; stroke:none;" d="M233 139L229 149L234 152L235 144L234 144L234 150L233 150L235 140L233 139z"/>
<path style="fill:#6b367f; stroke:none;" d="M235 139L237 144L237 145L237 150L238 150L236 142L236 141L238 141L235 139M420 139L419 141L421 141L420 139M423 139L423 141L425 141L423 139M426 139L426 141L428 141L426 139M430 139L429 141L431 141L430 139M432 141L435 141L434 139L432 141M436 139L436 141L438 141L436 139M61 140L61 143L62 143L61 140M157 140L158 146L159 140L157 140z"/>
<path style="fill:#ef9663; stroke:none;" d="M233.667 140.333L234.333 140.667L233.667 140.333z"/>
<path style="fill:#260815; stroke:none;" d="M390 140L390 144L391 144L390 140z"/>
<path style="fill:#ad494a; stroke:none;" d="M392 140L394 143L392 140z"/>
<path style="fill:#6b367f; stroke:none;" d="M91 141L91 144L92 144L91 141M115 141L111 143L109 145L109 146L116 146L115 141M161 141L161 146L163 146L163 141L161 141M165 141L165 144L166 144L165 141M514 141L515 142L514 141M518 141L519 142L518 141z"/>
<path style="fill:#260815; stroke:none;" d="M106.333 142.667L106.667 143.333L106.333 142.667z"/>
<path style="fill:#ef9663; stroke:none;" d="M108.667 142.333L109.333 142.667L108.667 142.333M113 142L112 144L114 144L113 142z"/>
<path style="fill:#6b367f; stroke:none;" d="M196 142L196 145L198 145L198 142L196 142M199 142L199 145L200 145L201 142L199 142M202 142L202 145L203 145L202 142M205 142L205 145L206 145L205 142M208 142L208 146L209 146L208 142M211 142L211 145L212 145L211 142M213 142L213 145L215 145L215 142L213 142M231 142L232 143L231 142z"/>
<path style="fill:#260815; stroke:none;" d="M235 142L236 143L235 142z"/>
<path style="fill:#ad494a; stroke:none;" d="M384 142L384 145L385 145L384 142z"/>
<path style="fill:#6b367f; stroke:none;" d="M401 142L401 146L402 146L401 142M404 142L404 146L405 146L404 142M409 142L409 146L410 146L409 142M412 142L412 146L413 146L412 142z"/>
<path style="fill:#ef9663; stroke:none;" d="M519.667 142.333L520.333 142.667L519.667 142.333z"/>
<path style="fill:#260815; stroke:none;" d="M522.333 142.667L522.667 143.333L522.333 142.667z"/>
<path style="fill:#6b367f; stroke:none;" d="M93 143L94 144L93 143z"/>
<path style="fill:#ef9663; stroke:none;" d="M116.667 143.333L117.333 143.667L116.667 143.333M120 143L120 145L122 145L122 143L120 143z"/>
<path style="fill:#6b367f; stroke:none;" d="M191.333 143.667L191.667 144.333L191.333 143.667M194 143L193 145L195 145L194 143M217 143L217 149L219 149L219 144L220 144L220 149L222 149L222 143L217 143M224 143L223 149L225 149L224 143M226 143L228 152L232 152L232 151L228 143L226 143M229.667 143.333L230.333 143.667L229.667 143.333z"/>
<path style="fill:#ef9663; stroke:none;" d="M233 143L233 150L234 150L235 143L233 143z"/>
<path style="fill:#260815; stroke:none;" d="M368 143L369 144L368 143z"/>
<path style="fill:#ef9663; stroke:none;" d="M392 143L392 146L394 146L394 143L392 143z"/>
<path style="fill:#6b367f; stroke:none;" d="M398 143L398 146L399 146L398 143M407 143L408 144L407 143M415 143L415 146L416 146L415 143z"/>
<path style="fill:#ef9663; stroke:none;" d="M508 143L508 145L510 143L508 143M511 143L511 144L514 144L511 143M515.667 143.333L516.333 143.667L515.667 143.333z"/>
<path style="fill:#6b367f; stroke:none;" d="M515 146L521 146L521 145L519 143L515 146z"/>
<path style="fill:#ad494a; stroke:none;" d="M527 143L528 144L527 143z"/>
<path style="fill:#6b367f; stroke:none;" d="M32 144L32 147L33 147L32 144M64.3333 144.667L64.6667 145.333L64.3333 144.667z"/>
<path style="fill:#ef9663; stroke:none;" d="M123.667 144.333L124.333 144.667L123.667 144.333M127 144L127 146L129 146L129 144L127 144z"/>
<path style="fill:#260815; stroke:none;" d="M235.667 144.333L236.333 144.667L235.667 144.333z"/>
<path style="fill:#ef9663; stroke:none;" d="M501.333 144.667L501.667 145.333L501.333 144.667M504.667 144.333L505.333 144.667L504.667 144.333z"/>
<path style="fill:#6b367f; stroke:none;" d="M507 146L512 147L511 144L507 146M35 145L35 148L36 148L35 145M120 145L119 147L121 147L120 145M122 145L123 146L122 145z"/>
<path style="fill:#ef9663; stroke:none;" d="M131 145L132 146L131 145M134 145L134 147L136 147L136 145L134 145z"/>
<path style="fill:#6b367f; stroke:none;" d="M384 145L384 155L385 155L384 145z"/>
<path style="fill:#ef9663; stroke:none;" d="M494.333 145.667L494.667 146.333L494.333 145.667M497.667 145.333L498.333 145.667L497.667 145.333z"/>
<path style="fill:#6b367f; stroke:none;" d="M116.667 146.333L117.333 146.667L116.667 146.333M124 147L124 148L130 148L124 147z"/>
<path style="fill:#ef9663; stroke:none;" d="M138 146L139 147L138 146z"/>
<path style="fill:#6b367f; stroke:none;" d="M156 146L152 147L152 148L158 149L158 148L156 146z"/>
<path style="fill:#ad494a; stroke:none;" d="M156 147L168 150C165.257 146.604 160.068 146.13 156 147z"/>
<path style="fill:#6b367f; stroke:none;" d="M164 148L167 146L164 148M229 146L230 147L229 146z"/>
<path style="fill:#ef9663; stroke:none;" d="M230 146L230 150L231 150L230 146z"/>
<path style="fill:#260815; stroke:none;" d="M390 146L391 147L390 146z"/>
<path style="fill:#ad494a; stroke:none;" d="M392 146L392 151L394 151L394 146L392 146M469 149L473 148L469 149z"/>
<path style="fill:#ef9663; stroke:none;" d="M490.667 146.333L491.333 146.667L490.667 146.333z"/>
<path style="fill:#6b367f; stroke:none;" d="M499 146L499 148L505 148L499 146M513 146L514 147L513 146M60.3333 147.667L60.6667 148.333L60.3333 147.667M134 147L134 148L138 149L134 147z"/>
<path style="fill:#ad494a; stroke:none;" d="M229 147L230 148L229 147z"/>
<path style="fill:#6b367f; stroke:none;" d="M492 148L492 149L497 149L497 147L492 148M506 147L507 148L506 147M133 148L134 149L133 148M139 148L139 149L167 152L167 151L161 149L139 148M245 148L244 181L245 181L245 148z"/>
<path style="fill:#ad494a; stroke:none;" d="M395 148L395 151L396 151L395 148z"/>
<path style="fill:#6b367f; stroke:none;" d="M468 148L469 149L468 148M31 149L31 152L32 152L31 149M34 149L34 154L35 154L34 149M164 149L165 150L164 149z"/>
<path style="fill:#260815; stroke:none;" d="M390 149L391 150L390 149z"/>
<path style="fill:#6b367f; stroke:none;" d="M420.667 149.333L421.333 149.667L420.667 149.333M423 149L424 150L423 149M426.667 149.333L427.333 149.667L426.667 149.333M429.667 149.333L430.333 149.667L429.667 149.333M433 149L434 150L433 149M436 149L437 150L436 149z"/>
<path style="fill:#ad494a; stroke:none;" d="M106 150L106 167L108 164L109 164L111 167L111 162L112 162L112 167L114 164L115 164L115 168L116 168L116 162L118 168L122 168L121 160C123.839 160.921 125.479 161.268 126 158L127 158L130 161L131 161L129 152L128 155L127 155L125 152L125 156L124 156L124 152L117 151L117 157L116 157L116 151L114 151L114 156L113 156L113 151L111 151L111 156L110 156L110 150L106 150z"/>
<path style="fill:#6b367f; stroke:none;" d="M110 150L110 156L111 156L113 151L110 150M234.333 150.667L234.667 151.333L234.333 150.667M507 151L507 158L508 158L508 152L516 152L507 151M517.667 150.333L518.333 150.667L517.667 150.333z"/>
<path style="fill:#ad494a; stroke:none;" d="M508 152L508 158L507 158L507 152L505 152L505 158L504 158L504 152L500 152L500 163L499 163L499 160L498 160L499 169L500 169L501 163L502 163L501 168L503 165L504 165L506 168L508 162L507 168L512 168L511 157L512 157L513 160L514 157L515 157L513 167L515 167L515 161L516 161L516 167L518 167L518 161L519 161L519 167L521 167L521 161L522 161L522 167L524 167L524 160L522 161L524 150L522 150L522 156L521 156L521 150L508 152z"/>
<path style="fill:#6b367f; stroke:none;" d="M521 150L521 156L522 156L521 150z"/>
<path style="fill:#ad494a; stroke:none;" d="M527.333 150.667L527.667 151.333L527.333 150.667z"/>
<path style="fill:#6b367f; stroke:none;" d="M113 151L113 156L114 156L113 151M116 151L116 157L117 157L116 151M118 151L118 152L121 152L118 151M122 151L123 152L122 151M468.667 151.333L469.333 151.667L468.667 151.333M63.3333 152.667L63.6667 153.333L63.3333 152.667M124 152L124 156L125 156L124 152M127 152L127 155L128 155L127 152M129 152L130 153L129 152M167 152L168 153L167 152M254 152L254 158L255 158L254 152z"/>
<path style="fill:#260815; stroke:none;" d="M368 152L369 153L368 152z"/>
<path style="fill:#6b367f; stroke:none;" d="M499 152L499 157L500 157L499 152M501 152L502 153L501 152M504 152L504 158L505 158L504 152M518 152L519 153L518 152z"/>
<path style="fill:#260815; stroke:none;" d="M366 153L367 154L366 153z"/>
<path style="fill:#6b367f; stroke:none;" d="M513 153L514 154L513 153M30 154L32 164L33 164L30 154M59 154L59 157L60 157L59 154z"/>
<path style="fill:#260815; stroke:none;" d="M361 154L362 155L361 154z"/>
<path style="fill:#6b367f; stroke:none;" d="M501 154L501 158L502 158L501 154z"/>
<path style="fill:#260815; stroke:none;" d="M525.333 154.667L525.667 155.333L525.333 154.667z"/>
<path style="fill:#6b367f; stroke:none;" d="M122.333 155.667L122.667 156.333L122.333 155.667M130 155L130 158L131 158L130 155M145 155L146 158L144 157L145 161L146 161L148 158L147 167C151.33 163.877 149.391 159.614 149 155L145 155z"/>
<path style="fill:#ad494a; stroke:none;" d="M272 155L273 156L272 155z"/>
<path style="fill:#260815; stroke:none;" d="M363 155L362 157L363 155M373.667 155.333L374.333 155.667L373.667 155.333z"/>
<path style="fill:#ad494a; stroke:none;" d="M375 157L378 155L375 157z"/>
<path style="fill:#6b367f; stroke:none;" d="M378 155L378 157L381 157L381 155L378 155M518 155L519 156L518 155z"/>
<path style="fill:#260815; stroke:none;" d="M104 156L104 167L105 167L104 156z"/>
<path style="fill:#ef9663; stroke:none;" d="M106 156L106 160L107 160L106 156M109 156L109 161L110 161L109 156z"/>
<path style="fill:#6b367f; stroke:none;" d="M119 156L120 157L119 156M125.333 156.667L125.667 157.333L125.333 156.667z"/>
<path style="fill:#ad494a; stroke:none;" d="M144 156L146 158L146 156L144 156M148 156L148 158L150 158L150 156L148 156z"/>
<path style="fill:#6b367f; stroke:none;" d="M151 156L155 168L154 158L155 158C155.026 165.319 156.603 167.683 164 168L163 159L165 159L165 168L166 168L167 159L168 159C168.004 163.825 167.763 167.104 172 170L168 158L165 159L166 157L159 159L160 156L155 158L156 156L151 156M204 156L204 160L205 160L206 156L204 156M207 156L207 161L208 161L207 156M210 156L210 161L212 161L212 156L210 156M213 156L214 161L215 161L215 156L213 156M227 156L228 158L225 157L226 167L227 167L228 158L229 158L230 167L231 167L231 159L233 159L233 167L234 167L235 158L236 158L237 167L240 157L233 156L233 157L235 157L235 158L227 156M237 156L238 157L237 156z"/>
<path style="fill:#260815; stroke:none;" d="M364 156L367 158L367 157L364 156M367 156L367 157L370 157L367 156z"/>
<path style="fill:#ad494a; stroke:none;" d="M371 156L371 157L373 157L373 158L367 159L365 161L365 162C367.848 161.484 375.226 159.312 371 156z"/>
<path style="fill:#ef9663; stroke:none;" d="M373.667 156.333L374.333 156.667L373.667 156.333z"/>
<path style="fill:#ad494a; stroke:none;" d="M480 156L480 158L482 158L482 156L480 156M483 156L483 158L485 158L485 156L483 156z"/>
<path style="fill:#ef9663; stroke:none;" d="M522 156L522 161L523 161L524 156L522 156z"/>
<path style="fill:#ad494a; stroke:none;" d="M30 157L27 178L28 178L29 178C28.7796 171.829 35.3732 162.14 30 157z"/>
<path style="fill:#ef9663; stroke:none;" d="M112 157L112 161L113 161L112 157M115 157L115 161L116 161L115 157M118 157L118 162L119 162L118 157z"/>
<path style="fill:#ad494a; stroke:none;" d="M152.667 157.333L153.333 157.667L152.667 157.333M155.667 157.333L156.333 157.667L155.667 157.333M159.333 157.667L159.667 158.333L159.333 157.667M226.667 157.333L227.333 157.667L226.667 157.333M229.667 157.333L230.333 157.667L229.667 157.333M232 157L232 158L235 158L232 157M236 157L236 158L239 158L236 157z"/>
<path style="fill:#260815; stroke:none;" d="M360 157L361 158L360 157z"/>
<path style="fill:#ad494a; stroke:none;" d="M368 157L369 158L368 157z"/>
<path style="fill:#ef9663; stroke:none;" d="M368 158L368 159L373 158L368 158z"/>
<path style="fill:#6b367f; stroke:none;" d="M373 159L376 157L373 159z"/>
<path style="fill:#ad494a; stroke:none;" d="M470.333 157.667L470.667 158.333L470.333 157.667M473.333 157.667L473.667 158.333L473.333 157.667M476.667 157.333L477.333 157.667L476.667 157.333z"/>
<path style="fill:#ef9663; stroke:none;" d="M511 157L511 161L512 161L511 157M514 157L513 161L514 157M517 157L516 161L517 157M519 157L519 161L520 161L519 157z"/>
<path style="fill:#6b367f; stroke:none;" d="M62 158L62 161L63 161L62 158z"/>
<path style="fill:#ef9663; stroke:none;" d="M120.333 158.667L120.667 159.333L120.333 158.667M123.333 158.667L123.667 159.333L123.333 158.667M126 158L128 162L126 158z"/>
<path style="fill:#260815; stroke:none;" d="M154 158C153.114 161.774 152.499 164.728 156 167L154 158z"/>
<path style="fill:#ad494a; stroke:none;" d="M161.667 158.333L162.333 158.667L161.667 158.333M165.667 158.333L166.333 158.667L165.667 158.333M168 158L169 159L168 158z"/>
<path style="fill:#260815; stroke:none;" d="M228 158L227 167C231.402 166.057 230.63 160.63 228 158M235 158L234 167L237 166L235 158M254.333 158.667L254.667 159.333L254.333 158.667M359 158L359 161L360 161L359 158M363 158L361 161L363 158z"/>
<path style="fill:#ef9663; stroke:none;" d="M365 158L361 162L361 163L367 158L365 158z"/>
<path style="fill:#d9bcb7; stroke:none;" d="M367 158L368 159L367 158z"/>
<path style="fill:#260815; stroke:none;" d="M475 158L475 167L476 167L475 158M478 158L478 167L479 167L480 158L478 158M482 158L482 166L483 166L482 158z"/>
<path style="fill:#ef9663; stroke:none;" d="M502 158L502 163L503 163L502 158M505 158L505 162L506 162L505 158M508 158L508 162L509 162L508 158z"/>
<path style="fill:#6b367f; stroke:none;" d="M29 159L29 163L30 163L29 159z"/>
<path style="fill:#ef9663; stroke:none;" d="M129 159L131 162L129 159z"/>
<path style="fill:#260815; stroke:none;" d="M156 159L159 167L159 159L156 159M160 159L160 167L162 167L162 159L160 159M163 159L164 168L165 168L165 159L163 159M167 159L166 168L168 168L167 159M231 159L231 167L233 167L233 159L231 159z"/>
<path style="fill:#d9bcb7; stroke:none;" d="M283 159L283 160L288 160L283 159z"/>
<path style="fill:#ad494a; stroke:none;" d="M311 159L311 162L312 162L311 159M363 159L362 161L363 159z"/>
<path style="fill:#d9bcb7; stroke:none;" d="M364 159L365 160L364 159z"/>
<path style="fill:#6b367f; stroke:none;" d="M368 159L369 160L368 159M372 159L373 160L372 159z"/>
<path style="fill:#260815; stroke:none;" d="M472 159L472 162L473 162L472 159z"/>
<path style="fill:#ef9663; stroke:none;" d="M499 159L499 163L500 163L499 159M121.333 160.667L121.667 161.333L121.333 160.667M124 160L123 162L125 162L124 160z"/>
<path style="fill:#6b367f; stroke:none;" d="M254 160L255 161L254 160z"/>
<path style="fill:#d9bcb7; stroke:none;" d="M363 160L364 161L363 160z"/>
<path style="fill:#260815; stroke:none;" d="M365 160L366 161L365 160z"/>
<path style="fill:#6b367f; stroke:none;" d="M366 160L367 161L366 160M370 160L371 161L370 160M58.3333 161.667L58.6667 162.333L58.3333 161.667M125 161L125 166L126 166L125 161z"/>
<path style="fill:#260815; stroke:none;" d="M254 161L254 182L255 182L254 161M360 161L359 165L360 165L360 161z"/>
<path style="fill:#d9bcb7; stroke:none;" d="M362 161L363 162L362 161z"/>
<path style="fill:#260815; stroke:none;" d="M364 161L362 166L363 167L366 166L364 161z"/>
<path style="fill:#6b367f; stroke:none;" d="M368.667 161.333L369.333 161.667L368.667 161.333M418 161L419 162L418 161M428 161L430 163L428 161M108 162L109 163L108 162M113.667 162.333L114.333 162.667L113.667 162.333z"/>
<path style="fill:#ad494a; stroke:none;" d="M123 162L123 168L128 168L128 162L126 162L126 166L125 166L125 162L123 162M129 162L129 168L131 168L131 162L129 162z"/>
<path style="fill:#6b367f; stroke:none;" d="M145 162L145 165L146 165L145 162M223 162L220 167L220 168C223.109 166.752 224.262 165.259 223 162M364 162L365 167L368 162L364 162z"/>
<path style="fill:#260815; stroke:none;" d="M468 162L468 167L469 167L468 162z"/>
<path style="fill:#ad494a; stroke:none;" d="M360 163L362 165L360 163z"/>
<path style="fill:#d9bcb7; stroke:none;" d="M361 163L362 164L361 163z"/>
<path style="fill:#6b367f; stroke:none;" d="M362 163L363 164L362 163z"/>
<path style="fill:#260815; stroke:none;" d="M472 163L472 167L473 167L472 163z"/>
<path style="fill:#6b367f; stroke:none;" d="M498 163L498 166L499 166L498 163M28 164L28 167L29 167L28 164M202 164L201 169L202 164z"/>
<path style="fill:#d9bcb7; stroke:none;" d="M360.333 164.667L360.667 165.333L360.333 164.667z"/>
<path style="fill:#6b367f; stroke:none;" d="M363 164L363 166L365 166L363 164z"/>
<path style="fill:#260815; stroke:none;" d="M526 164L527 165L526 164z"/>
<path style="fill:#6b367f; stroke:none;" d="M208 165L208 170L209 170L208 165M210 165L210 170L212 170L212 165L210 165M214 165L213 170L214 165z"/>
<path style="fill:#ad494a; stroke:none;" d="M359 165L360 166L359 165z"/>
<path style="fill:#6b367f; stroke:none;" d="M361 165L362 166L361 165M509 165L510 166L509 165M31 166L30 174L31 174L31 166M61.3333 166.667L61.6667 167.333L61.3333 166.667z"/>
<path style="fill:#ad494a; stroke:none;" d="M144 166C148.501 171.33 164.312 169.999 171 170C165.239 165.636 151.335 166.468 144 166z"/>
<path style="fill:#260815; stroke:none;" d="M358 166L359 167L358 166z"/>
<path style="fill:#ef9663; stroke:none;" d="M359 166L359 168L361 166L359 166z"/>
<path style="fill:#6b367f; stroke:none;" d="M362 166L362 172L364 172L362 166z"/>
<path style="fill:#ad494a; stroke:none;" d="M476 166L466 170L477 170L478 166L476 166M479 169L485 166L479 169z"/>
<path style="fill:#6b367f; stroke:none;" d="M482 166L483 167L482 166z"/>
<path style="fill:#260815; stroke:none;" d="M524 166L525 167L524 166z"/>
<path style="fill:#6b367f; stroke:none;" d="M57 167L57 173L58 173L57 167z"/>
<path style="fill:#260815; stroke:none;" d="M105 167L106 168L105 167z"/>
<path style="fill:#6b367f; stroke:none;" d="M140 167L140 168L144 168L140 167z"/>
<path style="fill:#ad494a; stroke:none;" d="M220 168L220 169L240 169C235.25 165.402 225.611 166.672 220 168z"/>
<path style="fill:#6b367f; stroke:none;" d="M228 167L229 168L228 167M239 167L241 169L241 167L239 167M358 167L359 168L358 167z"/>
<path style="fill:#ad494a; stroke:none;" d="M360.333 167.667L360.667 168.333L360.333 167.667z"/>
<path style="fill:#6b367f; stroke:none;" d="M144 168L144 169L147 169L144 168M148 168L149 169L148 168M150.667 168.333L151.333 168.667L150.667 168.333z"/>
<path style="fill:#d9bcb7; stroke:none;" d="M359 168L360 169L359 168z"/>
<path style="fill:#6b367f; stroke:none;" d="M27 169C25.6953 185.395 20.8341 201.825 17.9167 218C16.8708 223.799 12.9536 231.254 19 235L20 229L17 229L17 226L21 226C21.9727 213.777 23.5062 194.862 29 184L29 183L29 182L27 179L30 179L28 176L29 178L28 178L27 178L27 169z"/>
<path style="fill:#260815; stroke:none;" d="M154 169L154 171L156 169L154 169M157 169L168 171L168 170L157 169z"/>
<path style="fill:#6b367f; stroke:none;" d="M158 169L159 170L158 169M160 169L161 170L160 169M220 169L221 170L220 169M222.667 169.333L223.333 169.667L222.667 169.333M226.667 169.333L227.333 169.667L226.667 169.333M229.667 169.333L230.333 169.667L229.667 169.333M233.667 169.333L234.333 169.667L233.667 169.333M236 169L236 170L239 170L236 169z"/>
<path style="fill:#ef9663; stroke:none;" d="M315 169L316 170L315 169M318.333 169.667L318.667 170.333L318.333 169.667M359 169L360 170L359 169z"/>
<path style="fill:#6b367f; stroke:none;" d="M360 169L361 170L360 169z"/>
<path style="fill:#260815; stroke:none;" d="M475.333 169.667L475.667 170.333L475.333 169.667M478 169L478 171L480 169L478 169M482 169L483 170L482 169z"/>
<path style="fill:#d9bcb7; stroke:none;" d="M359 170L359 174L360 174L359 170z"/>
<path style="fill:#260815; stroke:none;" d="M468.667 170.333L469.333 170.667L468.667 170.333M472 170L473 171L472 170z"/>
<path style="fill:#6b367f; stroke:none;" d="M60 172L60 176L61 176L60 172M171 172L172 173L171 172z"/>
<path style="fill:#ad494a; stroke:none;" d="M275.667 172.333L276.333 172.667L275.667 172.333M286 172L287 173L286 172z"/>
<path style="fill:#6b367f; stroke:none;" d="M312 172L312 173L336 173L337 178L312 177L312 178L317 183L290 184L290 189L318 189L317 183L360 182L360 176L359 173C345.128 168.9 326.471 172 312 172M360.333 172.667L360.667 173.333L360.333 172.667z"/>
<path style="fill:#d9bcb7; stroke:none;" d="M274 173C275.926 178.803 282.972 176.736 288 177L288 173L274 173M290 173L289 174L289 176L290 177L292 177L293 176L293 174L292 173L290 173M294 173L294 177L313 177L313 173L294 173z"/>
<path style="fill:#ad494a; stroke:none;" d="M313 173L315 175L315 173L313 173z"/>
<path style="fill:#d9bcb7; stroke:none;" d="M314 176L336 177C333.911 170.705 317.533 171.101 314 176z"/>
<path style="fill:#ad494a; stroke:none;" d="M335 173L336 174L335 173z"/>
<path style="fill:#d9bcb7; stroke:none;" d="M337 173L337 177L354 177L354 173L337 173z"/>
<path style="fill:#260815; stroke:none;" d="M355 173L355 177L338 177L338 178L356 179L355 173M357 173L358 174L357 173z"/>
<path style="fill:#6b367f; stroke:none;" d="M56 174L56 179L57 179L56 174M313.333 174.667L313.667 175.333L313.333 174.667z"/>
<path style="fill:#260815; stroke:none;" d="M358.333 174.667L358.667 175.333L358.333 174.667z"/>
<path style="fill:#ef9663; stroke:none;" d="M359 174L360 175L359 174z"/>
<path style="fill:#ad494a; stroke:none;" d="M360 174L359 176L361 176L360 174z"/>
<path style="fill:#6b367f; stroke:none;" d="M519 174L518 179L519 174M522 174L521 180L524 180L522 174M497 175L495 180C498.012 179.354 498.498 177.613 497 175M499 175L500 180L501 180L499 175M502 175L503 180L504 180L502 175M505 175L508 181L507 175L505 175z"/>
<path style="fill:#ad494a; stroke:none;" d="M108 176L108 178L110 178L108 176M112.333 176.667L112.667 177.333L112.333 176.667M228 176L227 185L228 185L228 182L229 182L228 192L230 192L230 186L231 186L231 192L233 192L233 186L234 186L234 192L237 192L238 192L238 176L228 176z"/>
<path style="fill:#6b367f; stroke:none;" d="M229.667 176.333L230.333 176.667L229.667 176.333M232.667 176.333L233.333 176.667L232.667 176.333M235.667 176.333L236.333 176.667L235.667 176.333M238.333 176.667L238.667 177.333L238.333 176.667M240 176L240 189L241 189L240 176z"/>
<path style="fill:#ef9663; stroke:none;" d="M274 176L275 177L274 176M285.667 176.333L286.333 176.667L285.667 176.333M292 176L293 177L292 176z"/>
<path style="fill:#ad494a; stroke:none;" d="M313.667 176.333L314.333 176.667L313.667 176.333z"/>
<path style="fill:#ef9663; stroke:none;" d="M360 176L361 177L360 176z"/>
<path style="fill:#ad494a; stroke:none;" d="M115.667 177.333L116.333 177.667L115.667 177.333M119.333 177.667L119.667 178.333L119.333 177.667z"/>
<path style="fill:#6b367f; stroke:none;" d="M227 177L227 182L228 182L227 177z"/>
<path style="fill:#260815; stroke:none;" d="M335.667 177.333L336.333 177.667L335.667 177.333M359 177L359 181L360 181L359 177z"/>
<path style="fill:#ad494a; stroke:none;" d="M360 177L361 178L360 177z"/>
<path style="fill:#6b367f; stroke:none;" d="M361 177L362 178L361 177M476.667 177.333L477.333 177.667L476.667 177.333M479 177L479 178L483 178L479 177z"/>
<path style="fill:#ad494a; stroke:none;" d="M479 178L478 178L477 180L476 180L476 178L475 178L474 178L474 180L473 180L472 180L468 178L468 179L471 179L471 180L465 180L464 188L467 182L468 182L468 192L492 192L492 191L488 191L488 177L479 178z"/>
<path style="fill:#6b367f; stroke:none;" d="M485 177L486 178L485 177M488 177L489 178L488 177z"/>
<path style="fill:#260815; stroke:none;" d="M110 178L110 187L111 187L110 178M114 178L114 187L115 187L114 178z"/>
<path style="fill:#ad494a; stroke:none;" d="M122.667 178.333L123.333 178.667L122.667 178.333M125.667 178.333L126.333 178.667L125.667 178.333M128.667 178.333L129.333 178.667L128.667 178.333M132.667 178.333L133.333 178.667L132.667 178.333z"/>
<path style="fill:#6b367f; stroke:none;" d="M232 178L233 182L234 182L232 178z"/>
<path style="fill:#ef9663; stroke:none;" d="M288 178L289 179L288 178z"/>
<path style="fill:#260815; stroke:none;" d="M337 178L338 179L337 178M357 178L358 179L357 178z"/>
<path style="fill:#ef9663; stroke:none;" d="M360 178L360 180L362 180L362 178L360 178M472 178L472 180L474 180L474 178L472 178M476 178L476 180L478 180L478 178L476 178M479 178L479 180L481 180L481 178L479 178M483 178L483 180L485 180L485 178L483 178M486 178L486 180L488 180L488 178L486 178z"/>
<path style="fill:#6b367f; stroke:none;" d="M489.667 178.333L490.333 178.667L489.667 178.333z"/>
<path style="fill:#260815; stroke:none;" d="M117 179L117 187L118 187L117 179M124.333 179.667L124.667 180.333L124.333 179.667M127 179L127 185L128 185L127 179M130 179L130 187L131 187L130 179z"/>
<path style="fill:#ad494a; stroke:none;" d="M135 179L136 180L135 179z"/>
<path style="fill:#6b367f; stroke:none;" d="M238 179L238 182L239 182L238 179M363 179L362 184L376 180L363 179z"/>
<path style="fill:#ef9663; stroke:none;" d="M468 179L468 180L471 180L468 179z"/>
<path style="fill:#6b367f; stroke:none;" d="M491 179L492 180L491 179z"/>
<path style="fill:#ad494a; stroke:none;" d="M510 184L509 184L509 180L499 180L499 185L513 185L513 179L510 184M518 179L518 183L517 183L517 180L516 180L515 185L523 185L523 179L518 179z"/>
<path style="fill:#6b367f; stroke:none;" d="M59 180L59 183L60 183L59 180z"/>
<path style="fill:#260815; stroke:none;" d="M120 180L120 183L121 183L120 180z"/>
<path style="fill:#6b367f; stroke:none;" d="M161 180L156 181C156.174 186.295 157.855 188.614 163 186L161 180z"/>
<path style="fill:#ad494a; stroke:none;" d="M162 180L163 188L165 188L165 183L166 183L166 188L168 188L168 184L169 184L169 188L171 188L171 183L172 183L172 188L174 188L172 180L162 180z"/>
<path style="fill:#6b367f; stroke:none;" d="M164 180L165 181L164 180M170 180L171 181L170 180M172 180L173 181L172 180M214 180L215 181L214 180z"/>
<path style="fill:#ad494a; stroke:none;" d="M213 188L215 188L215 183L216 183L216 188L218 188L218 183L219 183L219 188L221 186L222 186L224 188L226 180C218.854 180 213.468 179.482 213 188z"/>
<path style="fill:#6b367f; stroke:none;" d="M230 180L231 181L230 180z"/>
<path style="fill:#260815; stroke:none;" d="M356.667 180.333L357.333 180.667L356.667 180.333z"/>
<path style="fill:#d9bcb7; stroke:none;" d="M360 180L361 181L360 180z"/>
<path style="fill:#ad494a; stroke:none;" d="M361 180L362 181L361 180z"/>
<path style="fill:#6b367f; stroke:none;" d="M467 180L468 181L467 180M483 180L483 183L484 183L483 180z"/>
<path style="fill:#260815; stroke:none;" d="M487 180L488 181L487 180z"/>
<path style="fill:#ad494a; stroke:none;" d="M495 180L495 185L496 185L498 180L495 180z"/>
<path style="fill:#ef9663; stroke:none;" d="M509 180L509 184L510 184L509 180M515 180L515 184L516 184L515 180M519 180L519 184L520 184L519 180M522 180L522 184L523 184L522 180z"/>
<path style="fill:#6b367f; stroke:none;" d="M219 181L220 182L219 181M225 181L224 188L228 188L226 186L225 181z"/>
<path style="fill:#260815; stroke:none;" d="M358 181C349.849 187.176 327.181 183 317 183L318 189L358 188L358 181z"/>
<path style="fill:#ef9663; stroke:none;" d="M360 181L358 189L359 189L360 181z"/>
<path style="fill:#6b367f; stroke:none;" d="M361 181L362 182L361 181M463 181L463 188L464 188L465 181L463 181M469 181L470 182L469 181M472 181L472 183L474 183L472 181z"/>
<path style="fill:#260815; stroke:none;" d="M473 181L474 182L473 181M476.333 181.667L476.667 182.333L476.333 181.667z"/>
<path style="fill:#6b367f; stroke:none;" d="M477 181L478 182L477 181M479 181L479 188L481 188L481 181L479 181M486 181L486 183L488 183L488 181L486 181M490 181L490 185L491 185L492 181L490 181z"/>
<path style="fill:#ef9663; stroke:none;" d="M500 181L501 182L500 181M503 181L503 184L504 184L503 181M505 181L506 182L505 181M512 181L512 184L513 184L512 181z"/>
<path style="fill:#6b367f; stroke:none;" d="M537.333 181.667L537.667 182.333L537.333 181.667M55 182C54.726 195.274 51.7015 208.853 49.8696 222C49.1653 227.054 46.8103 233.067 52 236L59 185L58 185L57 187L55 182z"/>
<path style="fill:#260815; stroke:none;" d="M124 182L124 185L125 185L124 182z"/>
<path style="fill:#6b367f; stroke:none;" d="M173 182L174 183L173 182M213 182L214 183L213 182z"/>
<path style="fill:#ef9663; stroke:none;" d="M228 182L228 186L229 186L228 182M231 182L231 186L232 186L231 182M234 182L234 186L235 186L234 182M237 182L237 186L238 186L237 182M288 182L289 183L288 182z"/>
<path style="fill:#ad494a; stroke:none;" d="M359.333 182.667L359.667 183.333L359.333 182.667z"/>
<path style="fill:#6b367f; stroke:none;" d="M467 182L467 186L468 186L467 182z"/>
<path style="fill:#260815; stroke:none;" d="M469.333 182.667L469.667 183.333L469.333 182.667z"/>
<path style="fill:#ef9663; stroke:none;" d="M495.333 182.667L495.667 183.333L495.333 182.667z"/>
<path style="fill:#6b367f; stroke:none;" d="M165.333 183.667L165.667 184.333L165.333 183.667M171 183L171 187L172 187L171 183M215 183L215 186L216 186L215 183M218 183L218 188L219 188L218 183z"/>
<path style="fill:#260815; stroke:none;" d="M473 183L473 186L474 186L473 183z"/>
<path style="fill:#6b367f; stroke:none;" d="M476 183L477 184L476 183z"/>
<path style="fill:#260815; stroke:none;" d="M483 183L484 184L483 183M486 183L487 184L486 183z"/>
<path style="fill:#ef9663; stroke:none;" d="M500 183L501 184L500 183M506 183L507 184L506 183z"/>
<path style="fill:#ad494a; stroke:none;" d="M27.3333 184.667L27.6667 185.333L27.3333 184.667M119 184L120 185L119 184z"/>
<path style="fill:#260815; stroke:none;" d="M120 184L122 187L120 184M133 184L133 187L134 187L133 184z"/>
<path style="fill:#6b367f; stroke:none;" d="M168 184L168 187L169 187L168 184z"/>
<path style="fill:#ad494a; stroke:none;" d="M360 184L361 185L360 184z"/>
<path style="fill:#6b367f; stroke:none;" d="M379 184L380 185L379 184M469 184L471 187L469 184M472 184L473 185L472 184z"/>
<path style="fill:#260815; stroke:none;" d="M476.333 184.667L476.667 185.333L476.333 184.667z"/>
<path style="fill:#6b367f; stroke:none;" d="M483 184L483 188L484 188L483 184M486 184L487 185L486 184M488 184L488 188L489 188L488 184z"/>
<path style="fill:#260815; stroke:none;" d="M514 184L515 191L514 184M517 184L517 190L519 190L517 184z"/>
<path style="fill:#6b367f; stroke:none;" d="M537 184L537 192L538 192L537 184z"/>
<path style="fill:#260815; stroke:none;" d="M165 185L166 186L165 185z"/>
<path style="fill:#6b367f; stroke:none;" d="M244 185L245 186L244 185M252 185L252 194L253 194L252 185z"/>
<path style="fill:#ad494a; stroke:none;" d="M282 185L283 186L282 185M284 185L285 186L284 185z"/>
<path style="fill:#6b367f; stroke:none;" d="M360 185L361 186L360 185M382 185L383 186L382 185z"/>
<path style="fill:#ad494a; stroke:none;" d="M383 185L383 186L403 188L383 185z"/>
<path style="fill:#6b367f; stroke:none;" d="M390 185L390 186L395 186L390 185z"/>
<path style="fill:#260815; stroke:none;" d="M486.333 185.667L486.667 186.333L486.333 185.667M501 185L501 190L503 190L503 185L501 185M504 185L504 190L506 190L506 185L504 185M507 185L508 191L509 191L509 185L507 185M510 185L511 190L512 190L510 185M520 185L520 190L522 190L522 185L520 185z"/>
<path style="fill:#ad494a; stroke:none;" d="M108 186L108 189L114 189L113 186L108 186M115 189L136 190L136 187C130.631 187.505 118.056 184.563 115 189z"/>
<path style="fill:#260815; stroke:none;" d="M123.667 186.333L124.333 186.667L123.667 186.333M127 186L128 187L127 186z"/>
<path style="fill:#6b367f; stroke:none;" d="M165.333 186.667L165.667 187.333L165.333 186.667M212.333 186.667L212.667 187.333L212.333 186.667M221.333 186.667L221.667 187.333L221.333 186.667M230 186L230 192L209 192L209 193L243 193L239 186L238 186L238 192L237 192L236 190L234 192L234 186L233 186L233 192L231 192L230 186z"/>
<path style="fill:#ad494a; stroke:none;" d="M293 186L294 187L293 186z"/>
<path style="fill:#6b367f; stroke:none;" d="M331 186L332 187L331 186z"/>
<path style="fill:#ad494a; stroke:none;" d="M332 186L332 187L356 189L356 188L332 186z"/>
<path style="fill:#ef9663; stroke:none;" d="M334 186L334 187L341 187L334 186z"/>
<path style="fill:#6b367f; stroke:none;" d="M347.667 186.333L348.333 186.667L347.667 186.333z"/>
<path style="fill:#ad494a; stroke:none;" d="M378 186L381 188L381 187L378 186z"/>
<path style="fill:#ef9663; stroke:none;" d="M379 186L379 187L384 187L379 186z"/>
<path style="fill:#6b367f; stroke:none;" d="M400.667 186.333L401.333 186.667L400.667 186.333M472 186L472 188L474 188L474 186L472 186M476 186L477 187L476 186M490.667 186.333L491.333 186.667L490.667 186.333z"/>
<path style="fill:#ad494a; stroke:none;" d="M329 187L331 189L329 187z"/>
<path style="fill:#ef9663; stroke:none;" d="M330 187L330 188L334 188L330 187z"/>
<path style="fill:#6b367f; stroke:none;" d="M354.667 187.333L355.333 187.667L354.667 187.333M358 187L359 188L358 187z"/>
<path style="fill:#ad494a; stroke:none;" d="M376 187L376 190L377 190L376 187z"/>
<path style="fill:#d9bcb7; stroke:none;" d="M377 187L378 188L377 187z"/>
<path style="fill:#ef9663; stroke:none;" d="M378 187L379 188L378 187z"/>
<path style="fill:#6b367f; stroke:none;" d="M389 188L389 189L400 189L389 188M401 188L401 189L411 190L401 188M466 187L467 188L466 187z"/>
<path style="fill:#260815; stroke:none;" d="M469.667 187.333L470.333 187.667L469.667 187.333M476 187L477 188L476 187z"/>
<path style="fill:#6b367f; stroke:none;" d="M486 187L487 188L486 187z"/>
<path style="fill:#260815; stroke:none;" d="M316 188L317 189L316 188z"/>
<path style="fill:#ad494a; stroke:none;" d="M327 188L324 194L325 194L327 188z"/>
<path style="fill:#ef9663; stroke:none;" d="M327 190L330 189L327 190z"/>
<path style="fill:#6b367f; stroke:none;" d="M350 188L350 189L353 189L350 188z"/>
<path style="fill:#ef9663; stroke:none;" d="M356 188L357 189L356 188z"/>
<path style="fill:#ad494a; stroke:none;" d="M357 188L358 189L357 188M359 188L360 189L359 188z"/>
<path style="fill:#6b367f; stroke:none;" d="M375 188L376 189L375 188z"/>
<path style="fill:#d9bcb7; stroke:none;" d="M376 188L377 189L376 188z"/>
<path style="fill:#ef9663; stroke:none;" d="M470 188L471 189L470 188M472.667 188.333L473.333 188.667L472.667 188.333M476 188L477 189L476 188M479.667 188.333L480.333 188.667L479.667 188.333M482.667 188.333L483.333 188.667L482.667 188.333M486 188L487 189L486 188z"/>
<path style="fill:#260815; stroke:none;" d="M110 189L111 190L110 189M113.667 189.333L114.333 189.667L113.667 189.333M117 189L118 190L117 189M120 189L121 190L120 189M124 189L125 190L124 189M127 189L128 190L127 189M130 189L131 190L130 189z"/>
<path style="fill:#6b367f; stroke:none;" d="M315 190L315 191L325 190L315 190M328 189L329 190L328 189M332.667 189.333L333.333 189.667L332.667 189.333M357 189L357 190L360 190L357 189z"/>
<path style="fill:#ef9663; stroke:none;" d="M375 189L374 192L375 189z"/>
<path style="fill:#260815; stroke:none;" d="M377 189L378 190L377 189z"/>
<path style="fill:#6b367f; stroke:none;" d="M378 189L379 190L378 189M387 189L388 190L387 189M264 190L264 191L281 191L264 190M283 190L284 191L283 190M286 190L287 195L286 195L286 192L266 192L266 193L285 193L285 194L271 195L271 197L282 199L283 199L285 200L286 200L286 196L287 196L287 206L288 206L286 190M307 190L307 191L313 191L307 190M329 190L330 191L329 190z"/>
<path style="fill:#ad494a; stroke:none;" d="M374 190L375 191L374 190z"/>
<path style="fill:#6b367f; stroke:none;" d="M377 190L378 191L377 190M376 197L377 197C379.112 193.17 381.84 193.049 386 193L386 192L380 192L380 191L385 191C380.065 189.098 376.762 192.179 376 197M413.667 190.333L414.333 190.667L413.667 190.333z"/>
<path style="fill:#ad494a; stroke:none;" d="M138 191L138 192L158 192L138 191z"/>
<path style="fill:#6b367f; stroke:none;" d="M144 192L144 193L175 192L144 192z"/>
<path style="fill:#ad494a; stroke:none;" d="M217 191L218 192L217 191z"/>
<path style="fill:#260815; stroke:none;" d="M264 191L264 209C271.426 206.646 279.379 206.186 287 208L288 207L287 196L286 196L286 200L285 200L285 197L283 199L282 199L271 197L271 195L285 194L285 193L266 193L266 192C271.676 192 282.599 189.754 286 195L287 195L287 191L264 191z"/>
<path style="fill:#6b367f; stroke:none;" d="M289 191L289 201L290 201L290 197L291 197L291 200L313 197L313 196C308.471 194.661 294.381 192.703 291 196L290 196L289 191M328 194L333 194L333 193C331.04 192.347 330.446 192 333 192L328 194z"/>
<path style="fill:#ad494a; stroke:none;" d="M331 192L331 193L337 193L331 192z"/>
<path style="fill:#6b367f; stroke:none;" d="M335 191L336 192L335 191M375 191L376 192L375 191z"/>
<path style="fill:#ad494a; stroke:none;" d="M380 191L380 192C386.005 192.454 389.632 197.403 382 199C390.236 202.08 390.624 191.125 380 191z"/>
<path style="fill:#6b367f; stroke:none;" d="M387 191L388 192L387 191M462 191L462 192L484 193L462 191z"/>
<path style="fill:#ad494a; stroke:none;" d="M465 191L466 192L465 191M210 192L210 193L217 193L210 192M218 192L218 193L224 193L218 192z"/>
<path style="fill:#6b367f; stroke:none;" d="M291 192L291 193L294 193L291 192M295 192L295 193L308 193L295 192M325 192L326 193L325 192M334 192L335 193L334 192M337 192L338 199L339 199L337 192M373 192L374 193L373 192z"/>
<path style="fill:#ad494a; stroke:none;" d="M374 192L373 196L374 196L374 192z"/>
<path style="fill:#6b367f; stroke:none;" d="M388 192L389 193L388 192M486 192L487 193L486 192M100 193C104.531 199.99 129.967 196 138 196L138 195L136 193L100 193z"/>
<path style="fill:#ad494a; stroke:none;" d="M329 193L330 194L329 193z"/>
<path style="fill:#6b367f; stroke:none;" d="M492 193L492 194L495 194L492 193M491 195L491 196C500.604 196 523.067 200.079 530 193L491 195z"/>
<path style="fill:#ad494a; stroke:none;" d="M133 194L134 195L133 194M135 194L135 195L165 195L135 194z"/>
<path style="fill:#6b367f; stroke:none;" d="M162 195L162 196L175 195L162 195M324 194L324 197L325 197L324 194z"/>
<path style="fill:#ad494a; stroke:none;" d="M328 194L329 199L330 199L328 194z"/>
<path style="fill:#6b367f; stroke:none;" d="M374 194L375 195L374 194M462 194L467 196L462 194z"/>
<path style="fill:#ad494a; stroke:none;" d="M464 194L465 195L464 194M466 194L466 195L496 195L466 194z"/>
<path style="fill:#6b367f; stroke:none;" d="M208 195L208 196L243 196L243 216L244 216L244 195L208 195M266.333 195.667L266.667 196.333L266.333 195.667M268.667 195.333L269.333 195.667L268.667 195.333M321 195L322 196L321 195M327.333 195.667L327.667 196.333L327.333 195.667M481 195L482 196L481 195M252 196C252 201.406 249.755 213.29 254 217L252 196M255 196L256 197L255 196M372 196L372 199L374 199L374 196L372 196M375 197L375 202L376 202L375 197M387 197L388 198L387 197M389 197L390 198L389 197M527 197L525 203L524 203C518.752 195.72 502.441 205.514 496 200L498 201L498 200L485 200L484 200L484 210L485 210C491.683 205.517 514.287 210.266 521 214L524 211L525 211L525 218L489 216L489 217L492 217L492 218L488 219L488 220L525 223.035L538 222L496 220L496 219L528 221L528 214L526 215L527 197M102 198L103 206L104 206L102 198M130 198L130 199L134 201L134 202L118 201L120 203L120 204C117.355 204.526 117.253 204.954 119 207L113 208L113 210L128 210L128 215L123 215L124 217L104 218L104 212L103 212L103 216L102 216L102 203L101 203L101 221L133 219L133 220L92 222L104.004 223.036L141 220L141 219L137 218L137 217L146 216L146 200L130 198M165 198L166 199L165 198z"/>
<path style="fill:#ad494a; stroke:none;" d="M208 198L208 199L217 199L208 198z"/>
<path style="fill:#6b367f; stroke:none;" d="M217 198L219 200L217 198z"/>
<path style="fill:#ad494a; stroke:none;" d="M218 198L220 200L220 198L218 198z"/>
<path style="fill:#6b367f; stroke:none;" d="M328 198L328 201L329 201L334 200L334 199L328 198M335 198L336 199L335 198M379 198L384 202L379 198M385 198L386 199L385 198M388 198L389 199L388 198M464 198L465 199L464 198M498 198L499 199L498 198M126 199L129 201L129 200L126 199z"/>
<path style="fill:#ad494a; stroke:none;" d="M127 199L127 200L132 201L127 199M134 199L135 200L134 199z"/>
<path style="fill:#6b367f; stroke:none;" d="M148 200L147 216L178 216L178 214L152 215L152 214C158.085 213.857 169.988 214.861 170 207L177 208C175.75 201.724 172.811 198.388 166 200L166 201L171 202L171 203L160 200L164 201L148 200z"/>
<path style="fill:#ad494a; stroke:none;" d="M161 199L161 200L167 200L161 199M168 199L169 200L168 199z"/>
<path style="fill:#6b367f; stroke:none;" d="M209.667 199.333L210.333 199.667L209.667 199.333z"/>
<path style="fill:#ad494a; stroke:none;" d="M334 199L336 202L329 207L339 204L339 203L336 203L336 202L362 202L362 201L334 199z"/>
<path style="fill:#6b367f; stroke:none;" d="M387 199L388 200L387 199M461 199L464 201L464 200L461 199z"/>
<path style="fill:#ad494a; stroke:none;" d="M462 199L462 200L468 200L462 199z"/>
<path style="fill:#6b367f; stroke:none;" d="M468 199L466 200L466 201L468 199z"/>
<path style="fill:#ad494a; stroke:none;" d="M495 199L496 200L495 199M497 199L497 200L503 200L497 199z"/>
<path style="fill:#6b367f; stroke:none;" d="M503 199L504 200L503 199z"/>
<path style="fill:#260815; stroke:none;" d="M160 200L171 203L171 202L160 200z"/>
<path style="fill:#6b367f; stroke:none;" d="M336 200L337 201L336 200M341.667 200.333L342.333 200.667L341.667 200.333M354 200L354 201L358 201L354 200z"/>
<path style="fill:#ad494a; stroke:none;" d="M379 200L380 201L379 200z"/>
<path style="fill:#6b367f; stroke:none;" d="M471 200L461 202L459 216L468 217C471.525 221.035 480.11 219.372 485 219L485 218L469 218L482 216L482 200L481 200L481 203L480 203L480 200L474 200L475 203L474 204L471 203L471 200M500 200L500 201L503 201L500 200M537 200L537 218L538 218L537 200z"/>
<path style="fill:#260815; stroke:none;" d="M135 201L134 203L135 201z"/>
<path style="fill:#6b367f; stroke:none;" d="M262 201C262.028 208.973 264.343 209.994 272 210L272 209L264 209L262 201M335 201L336 202L335 201M352 202L352 203L372 203L352 202M378 201L378 213L379 213L380 201L378 201z"/>
<path style="fill:#ad494a; stroke:none;" d="M102 202L102 216L103 216L102 202z"/>
<path style="fill:#260815; stroke:none;" d="M124 202L125 203L124 202z"/>
<path style="fill:#6b367f; stroke:none;" d="M332 202L333 203L332 202M336 202L336 203L339 203L336 202z"/>
<path style="fill:#260815; stroke:none;" d="M128 203L129 204L128 203M160.667 203.333L161.333 203.667L160.667 203.333M165 203L166 204L165 203z"/>
<path style="fill:#6b367f; stroke:none;" d="M330 203L331 204L330 203M336 204L336 205L349 205L336 204z"/>
<path style="fill:#260815; stroke:none;" d="M462 203L463 204L462 203M503 203L504 204L503 203z"/>
<path style="fill:#ad494a; stroke:none;" d="M527 203L526 215L527 215L527 203z"/>
<path style="fill:#260815; stroke:none;" d="M130 204L131 205L130 204z"/>
<path style="fill:#6b367f; stroke:none;" d="M329 204L330 205L329 204z"/>
<path style="fill:#260815; stroke:none;" d="M524 204L524 207L525 207L524 204M160 205L161 206L160 205M167 205L168 206L167 205z"/>
<path style="fill:#6b367f; stroke:none;" d="M328.333 205.667L328.667 206.333L328.333 205.667M333.667 205.333L334.333 205.667L333.667 205.333z"/>
<path style="fill:#260815; stroke:none;" d="M488 205L489 206L488 205M122.667 206.333L123.333 206.667L122.667 206.333z"/>
<path style="fill:#6b367f; stroke:none;" d="M331 206L332 207L331 206z"/>
<path style="fill:#260815; stroke:none;" d="M470.667 206.333L471.333 206.667L470.667 206.333M135 207L136 208L135 207z"/>
<path style="fill:#6b367f; stroke:none;" d="M268 207L268 208L286 208L268 207M287 207L288 208L287 207M289 207L289 208L328 209L317 207L289 207M329.667 207.333L330.333 207.667L329.667 207.333M375.333 207.667L375.667 208.333L375.333 207.667z"/>
<path style="fill:#260815; stroke:none;" d="M470 212L470 213L480 215C477.679 208.122 475.261 206.412 470 212z"/>
<path style="fill:#6b367f; stroke:none;" d="M280 209L280 210L284 210L280 209M286 209L287 210L286 209M287 210L287 216L288 216L287 210M289 210L289 216L290 216L289 210M176 211L177 212L176 211M375 211L375 223L376 223L375 211M321 212L322 213L321 212M324 212L324 214L326 214L326 212L324 212z"/>
<path style="fill:#260815; stroke:none;" d="M466 212L467 213L466 212z"/>
<path style="fill:#6b367f; stroke:none;" d="M199 216L242 216C237.371 209.449 216.541 212.997 209 213C204.995 213.002 201.334 212.4 199 216M315 213L315 214L320 214L315 213z"/>
<path style="fill:#260815; stroke:none;" d="M462 213L463 214L462 213z"/>
<path style="fill:#6b367f; stroke:none;" d="M93 214L93 221L94 221L93 214z"/>
<path style="fill:#ad494a; stroke:none;" d="M201 214L201 215L205 215L201 214M206 214L206 215L231 215L206 214z"/>
<path style="fill:#6b367f; stroke:none;" d="M377 214L377 222L378 222L377 214M290 216L290 217L328 218L317 215.996L290 216z"/>
<path style="fill:#ad494a; stroke:none;" d="M137 217L137 218L162 217L137 217z"/>
<path style="fill:#6b367f; stroke:none;" d="M278 217L278 218L286 218L286 217L278 217z"/>
<path style="fill:#ad494a; stroke:none;" d="M469 216L469 217L492 218L469 216z"/>
<path style="fill:#6b367f; stroke:none;" d="M145 218L145 219L152 220L152 221L132 222L132 223L163 221L163 220L154 220L154 219L162 219L145 218M168 217L168 218L171 218L168 217M273.667 217.333L274.333 217.667L273.667 217.333z"/>
<path style="fill:#ef9663; stroke:none;" d="M288 217L287 222L290 222L288 217z"/>
<path style="fill:#6b367f; stroke:none;" d="M459.667 217.333L460.333 217.667L459.667 217.333z"/>
<path style="fill:#260815; stroke:none;" d="M469.667 217.333L470.333 217.667L469.667 217.333M140 218L140 219L145 219L140 218M485 218L485 219L490 219L485 218z"/>
<path style="fill:#ad494a; stroke:none;" d="M141 219L141 220L149 220L141 219M480 219L480 220L488 220L480 219z"/>
<path style="fill:#6b367f; stroke:none;" d="M286 220L287 221L286 220M467 220L467 221L498 223L467 220z"/>
<path style="fill:#ad494a; stroke:none;" d="M286 221L286 223L280 222C279.437 226.307 273.462 225 270 225L237 225L237 226L293 225C291.96 221.335 289.461 221.587 286 221z"/>
<path style="fill:#6b367f; stroke:none;" d="M285 222L286 223L285 222z"/>
<path style="fill:#ef9663; stroke:none;" d="M293 222C288.947 228.626 275.825 226 269 226C244.537 226 221.255 228.083 197 230L197 231L282 228.014L397 229L397 228C364.955 227.735 329.802 220.938 298 226L293 222z"/>
<path style="fill:#ad494a; stroke:none;" d="M296 222L300 226L300 225L296 222z"/>
<path style="fill:#6b367f; stroke:none;" d="M124 223L124 224L128 224L124 223M279.333 223.667L279.667 224.333L279.333 223.667z"/>
<path style="fill:#ef9663; stroke:none;" d="M280 223L281 224L280 223z"/>
<path style="fill:#d9bcb7; stroke:none;" d="M294.667 223.333L295.333 223.667L294.667 223.333z"/>
<path style="fill:#6b367f; stroke:none;" d="M328 223L328 224C337.764 226.886 353.019 225.903 363 224L328 223z"/>
<path style="fill:#ad494a; stroke:none;" d="M343 223L344 224L343 223z"/>
<path style="fill:#6b367f; stroke:none;" d="M502 223L502 224L507 224L502 223M111 224L111 225L117 225L111 224M298 224L299 225L298 224z"/>
<path style="fill:#ad494a; stroke:none;" d="M325 225L325 226L397 228L397 229L280.015 228.025L197 231L197 230L215 228L215 227L192 228L192 231L146 238L146 239L293 239L293 240L127 239L127 240L180 241L280 241L424 241L502 240L502 239L458 240L355 240L355 239L482 239L482 237L424 227.171L325 225z"/>
<path style="fill:#260815; stroke:none;" d="M358.667 224.333L359.333 224.667L358.667 224.333z"/>
<path style="fill:#6b367f; stroke:none;" d="M512 224L512 225L520 225L512 224M98 225L98 226L106 226L98 225M227 225L227 226L237 226L227 225z"/>
<path style="fill:#ad494a; stroke:none;" d="M302 225L302 226L322 226L302 225z"/>
<path style="fill:#6b367f; stroke:none;" d="M381 225L381 226L395 226L381 225M524 225L524 226L531 226L524 225M93.6667 226.333L94.3333 226.667L93.6667 226.333M206 226L206 227L217 227L206 226z"/>
<path style="fill:#ad494a; stroke:none;" d="M217 226L217 227L226 227L217 226z"/>
<path style="fill:#6b367f; stroke:none;" d="M407 226L407 227C424.816 227 441.483 230.648 459 233.586C465.038 234.599 474.601 238.477 480 235L482 239L355 239L355 240L452 240C465.582 240 484.371 243.329 497 238L467.999 232.566L407 226M533 226L533 227L537 227L533 226M171 229L171 230L176 230L176 231L160 231L160 232L170 234L186 230L192 231L192 228L200 228C191.721 224.526 179.7 228.313 171 229M168.667 229.333L169.333 229.667L168.667 229.333z"/>
<path style="fill:#260815; stroke:none;" d="M186.667 230.333L187.333 230.667L186.667 230.333z"/>
<path style="fill:#ef9663; stroke:none;" d="M268 232L268 233L367 233L335 231L268 232z"/>
<path style="fill:#6b367f; stroke:none;" d="M198 232L198 233L218 234.299L275 236L440 234L440 232L399 230.104L342 234.985L198 232z"/>
<path style="fill:#260815; stroke:none;" d="M404 230L404 231L408 231L404 230M421.667 231.333L422.333 231.667L421.667 231.333M424.667 231.333L425.333 231.667L424.667 231.333M203 232L203 233L209 233L203 232z"/>
<path style="fill:#6b367f; stroke:none;" d="M160 234L160 235L166 235L160 234M195 233L196 234L195 233z"/>
<path style="fill:#260815; stroke:none;" d="M196 233L196 234L200 234L196 233z"/>
<path style="fill:#ad494a; stroke:none;" d="M280 233L280 234L283 234L280 233M288 234L288 235L365 234L340 233.961L288 234z"/>
<path style="fill:#260815; stroke:none;" d="M430.667 233.333L431.333 233.667L430.667 233.333z"/>
<path style="fill:#6b367f; stroke:none;" d="M149 235L149 236L160 236L149 235z"/>
<path style="fill:#260815; stroke:none;" d="M213 234L213 235L221 235L213 234M272 234L273 235L272 234M408 234L408 235L411 235L408 234z"/>
<path style="fill:#ad494a; stroke:none;" d="M475 234L476 235L475 234z"/>
<path style="fill:#260815; stroke:none;" d="M245 235L245 236L248 236L245 235M251 235L251 236L256 236L251 235M371 235L371 236L374 236L371 235z"/>
<path style="fill:#ad494a; stroke:none;" d="M479 235L480 236L479 235z"/>
<path style="fill:#6b367f; stroke:none;" d="M128 238L128 239L188 240L293 240L293 239L146 239L148 236L128 238z"/>
<path style="fill:#260815; stroke:none;" d="M479.667 236.333L480.333 236.667L479.667 236.333z"/>
<path style="fill:#ad494a; stroke:none;" d="M484.667 236.333L485.333 236.667L484.667 236.333z"/>
<path style="fill:#ef9663; stroke:none;" d="M248 237L248 238L350 238L319 237L248 237M352.667 237.333L353.333 237.667L352.667 237.333M360 237L360 238L363 238L360 237M368 237L369 238L368 237z"/>
<path style="fill:#6b367f; stroke:none;" d="M500.667 238.333L501.333 238.667L500.667 238.333M126 239L130 241L130 240L126 239M301 239L301 240L304 240L301 239M502 239L503 240L502 239M498 240L499 242L127 242L127 243L396 243L470 243C479.629 243 493.306 245.524 502 241L498 240z"/>
<path style="fill:#260815; stroke:none;" d="M228.667 241.333L229.333 241.667L228.667 241.333M256 241L256 242L265 242L256 241M365 241L365 242L499 242C488.496 237.592 470.42 241 459 241L365 241z"/>
<path style="fill:#6b367f; stroke:none;" d="M270 245L270 246L285 246L270 245M288 245L288 246L328 246C317.488 241.589 299.434 245 288 245z"/>
</svg>
